<?xml version="1.0" encoding="utf-8"?>
<!-- Generator: Adobe Illustrator 23.0.3, SVG Export Plug-In . SVG Version: 6.00 Build 0)  -->
<svg version="1.1" id="图层_1" xmlns="http://www.w3.org/2000/svg" xmlns:xlink="http://www.w3.org/1999/xlink" x="0px" y="0px"
	 viewBox="0 0 128 128" style="enable-background:new 0 0 128 128;" xml:space="preserve">
<style type="text/css">
	.st0{fill:#2D8CF0;}
	.st1{fill:#2D6DAD;}
	.st2{fill:#2B85E4;}
	.st3{fill:#3D84CC;}
</style>
<path class="st0" d="M14.4,102.3h98.1c1.3,0,2.4,0.4,3.3,1.4c0.9,0.9,1.4,2.1,1.4,3.3v7c0,1.3-0.4,2.4-1.4,3.3
	c-0.9,0.9-2.1,1.4-3.3,1.4H14.4c-1.3,0-2.4-0.4-3.3-1.4c-0.9-0.9-1.4-2.1-1.4-3.3v-7c0-1.3,0.4-2.4,1.4-3.3
	C11.9,102.7,13.1,102.3,14.4,102.3z"/>
<path class="st1" d="M63.4,28.2L75.5,21c1.1-0.6,2.4-0.7,3.6-0.4s2.3,1.1,2.8,2.3l34.6,60.4c1.3,2.3,0.6,5.1-1.7,6.5L102.7,97
	c-1.1,0.6-2.4,0.7-3.6,0.4s-2.3-1.1-2.8-2.3L61.7,34.7C60.4,32.4,61.2,29.6,63.4,28.2z"/>
<g>
	<path class="st2" d="M14.4,27.4h14.1c1.3,0,2.4,0.4,3.3,1.4c0.9,0.9,1.4,2.1,1.4,3.3v60.7c0,1.3-0.4,2.4-1.4,3.3
		c-0.9,0.9-2.1,1.4-3.3,1.4H14.4c-1.3,0-2.4-0.4-3.3-1.4c-0.9-0.9-1.4-2.1-1.4-3.3V32.1c0-1.3,0.4-2.4,1.4-3.3
		C11.9,28,13.1,27.4,14.4,27.4z"/>
</g>
<path class="st3" d="M44.8,11.1h14.1c1.3,0,2.4,0.4,3.3,1.4c0.9,0.9,1.4,2.1,1.4,3.3v77.1c0,1.3-0.4,2.4-1.4,3.3
	c-0.9,0.9-2.1,1.4-3.3,1.4H44.8c-1.3,0-2.4-0.4-3.3-1.4c-0.9-0.9-1.4-2.1-1.4-3.3V15.8c0-1.3,0.4-2.4,1.4-3.3
	C42.4,11.7,43.5,11.1,44.8,11.1z"/>
</svg>
