<svg xmlns="http://www.w3.org/2000/svg" viewBox="0 0 101.01 101.01"><defs><style>.cls-1{fill:#fc0;}.cls-2{fill:#fff;opacity:0.5;}.cls-3{fill:none;stroke:#2e4369;stroke-linecap:round;stroke-linejoin:round;stroke-width:2px;}</style></defs><title>资源 1</title><g id="图层_2" data-name="图层 2"><g id="Layer_1" data-name="Layer 1"><circle class="cls-1" cx="50.53" cy="50.52" r="23.1"/><path class="cls-2" d="M50.53,27.42a23.05,23.05,0,0,0-18.61,9.45A23.07,23.07,0,0,1,64.18,69.13,23.08,23.08,0,0,0,50.53,27.42Z"/><circle class="cls-3" cx="50.53" cy="50.52" r="23.1"/><line class="cls-3" x1="50.5" y1="1" x2="50.5" y2="14.2"/><line class="cls-3" x1="50.5" y1="86.81" x2="50.5" y2="100.01"/><line class="cls-3" x1="100.01" y1="50.5" x2="86.81" y2="50.5"/><line class="cls-3" x1="14.2" y1="50.5" x2="1" y2="50.5"/><line class="cls-3" x1="15.5" y1="15.5" x2="24.83" y2="24.83"/><line class="cls-3" x1="76.18" y1="76.18" x2="85.51" y2="85.51"/><line class="cls-3" x1="85.51" y1="15.5" x2="76.18" y2="24.83"/><line class="cls-3" x1="24.83" y1="76.18" x2="15.5" y2="85.51"/></g></g></svg>