<svg xmlns="http://www.w3.org/2000/svg" viewBox="0 0 100.36 100.76"><defs><style>.cls-1{fill:#e6f0fa;}.cls-2{fill:#000064;opacity:0.15;}.cls-3{fill:none;stroke:#2e4369;stroke-linecap:round;stroke-linejoin:round;stroke-width:2px;}</style></defs><title>资源 119</title><g id="图层_2" data-name="图层 2"><g id="Layer_1" data-name="Layer 1"><path class="cls-1" d="M54.84,1a41,41,0,0,1,4.92,19.55A41.25,41.25,0,0,1,18.51,61.8,41,41,0,0,1,1,57.86,49.48,49.48,0,1,0,54.84,1Z"/><path class="cls-2" d="M49.86,81.6A49.29,49.29,0,0,1,9.6,60.81a41.38,41.38,0,0,1-8.6-3A49.48,49.48,0,1,0,98.52,41.15,49.49,49.49,0,0,1,49.86,81.6Z"/><path class="cls-3" d="M54.84,1a41,41,0,0,1,4.92,19.55A41.25,41.25,0,0,1,18.51,61.8,41,41,0,0,1,1,57.86,49.48,49.48,0,1,0,54.84,1Z"/></g></g></svg>