<svg xmlns="http://www.w3.org/2000/svg" viewBox="0 0 101.01 77.9"><defs><style>.cls-1{fill:#cdf0f0;}.cls-2{fill:#000064;opacity:0.1;}.cls-3{fill:#fff;opacity:0.5;}.cls-4{fill:none;stroke:#2e4369;stroke-linecap:round;stroke-linejoin:round;stroke-width:2px;}</style></defs><title>资源 32</title><g id="图层_2" data-name="图层 2"><g id="Layer_1" data-name="Layer 1"><path class="cls-1" d="M90.11,57.1a19.8,19.8,0,0,0-19.8-19.8c-.64,0-1.28,0-1.91.09a26.38,26.38,0,0,0-50.68,6.53l-.22,0a16.5,16.5,0,0,0,0,33H70.42A19.8,19.8,0,0,0,90.11,57.1Z"/><path class="cls-2" d="M17.5,48.85a27.68,27.68,0,0,1,.42-4.67l-.42-.28h0a16.5,16.5,0,0,0,0,33h28A28,28,0,0,1,17.5,48.85Z"/><path class="cls-3" d="M90.11,57.1a19.81,19.81,0,0,0-19.8-19.8c-.61,0-1.21,0-1.8.09H68.4a26.43,26.43,0,0,0-20-16.2l-.87-.13c-.38,0-.77-.1-1.16-.13-.81-.08-1.63-.13-2.46-.13s-1.72.05-2.57.13a26.26,26.26,0,0,0-16,7.54A36,36,0,0,1,61.09,39.59a20.48,20.48,0,0,0-1.81,1.07c.37,0,.74-.06,1.13-.06A24.75,24.75,0,0,1,85.16,65.35a25,25,0,0,1-.64,5.52A19.73,19.73,0,0,0,90.11,57.1ZM66.63,37.66h0Z"/><path class="cls-1" d="M100,30.69A16.49,16.49,0,0,0,83.52,14.2a21.44,21.44,0,0,0-41.17,6.6l0,.07c.51,0,1-.07,1.53-.07A26.39,26.39,0,0,1,68.4,37.39c.63-.06,1.27-.09,1.91-.09a19.78,19.78,0,0,1,16.88,9.49h0A16.51,16.51,0,0,0,100,30.69Z"/><path class="cls-2" d="M100,30.69A16.49,16.49,0,0,0,83.52,14.2a21.44,21.44,0,0,0-41.17,6.6l0,.07c.51,0,1-.07,1.53-.07A26.39,26.39,0,0,1,68.4,37.39c.63-.06,1.27-.09,1.91-.09a19.78,19.78,0,0,1,16.88,9.49h0A16.51,16.51,0,0,0,100,30.69Z"/><path class="cls-4" d="M87.21,46.78A16.5,16.5,0,0,0,83.52,14.2a21.44,21.44,0,0,0-41.17,6.6"/><path class="cls-4" d="M90.11,57.1a19.8,19.8,0,0,0-19.8-19.8c-.64,0-1.28,0-1.91.09a26.38,26.38,0,0,0-50.68,6.53l-.22,0a16.5,16.5,0,0,0,0,33H70.42A19.8,19.8,0,0,0,90.11,57.1Z"/></g></g></svg>