<svg xmlns="http://www.w3.org/2000/svg" viewBox="0 0 101.01 61.42"><defs><style>.cls-1{fill:#cdf0f0;}.cls-2{fill:#000064;opacity:0.1;}.cls-3{fill:#fff;opacity:0.5;}.cls-4{fill:none;stroke:#2e4369;stroke-linecap:round;stroke-linejoin:round;stroke-width:2px;}</style></defs><title>资源 113</title><g id="图层_2" data-name="图层 2"><g id="Layer_1" data-name="Layer 1"><path class="cls-1" d="M78.56,17.53c-.28,0-.55,0-.82,0a28,28,0,0,0-53.29,7.34,18.15,18.15,0,1,0-5.3,35.52H78.56a21.45,21.45,0,0,0,0-42.9Z"/><path class="cls-2" d="M24.1,30.73A29.43,29.43,0,0,1,24.67,25l-.27-.08a18.15,18.15,0,1,0-5.25,35.53H53.81A29.71,29.71,0,0,1,24.1,30.73Z"/><path class="cls-3" d="M100,39A21.45,21.45,0,0,0,78.56,17.53c-.28,0-.55,0-.82,0A28.09,28.09,0,0,0,57.38,1.51c-.64-.11-1.28-.22-1.94-.29L55,1.17c-1-.09-1.91-.15-2.88-.15a29.15,29.15,0,0,0-5.23.48A27.88,27.88,0,0,0,33.29,8.35a38.31,38.31,0,0,1,7.31-.73A37.8,37.8,0,0,1,68.61,20a21.56,21.56,0,0,0-6.87,5.68A24.64,24.64,0,0,1,94.67,53.11,21.32,21.32,0,0,0,100,39Z"/><path class="cls-4" d="M78.56,17.53c-.28,0-.55,0-.82,0a28,28,0,0,0-53.29,7.34,18.15,18.15,0,1,0-5.3,35.51H78.56a21.45,21.45,0,1,0,0-42.89Z"/></g></g></svg>