<svg xmlns="http://www.w3.org/2000/svg" viewBox="0 0 101.02 81.19"><defs><style>.cls-1{fill:#cdf0f0;}.cls-2{fill:#fc0;}.cls-3{fill:#000064;opacity:0.1;}.cls-4{fill:#fff;opacity:0.5;}.cls-5{fill:none;stroke:#2e4369;stroke-linecap:round;stroke-linejoin:round;stroke-width:2px;}</style></defs><title>资源 112</title><g id="图层_2" data-name="图层 2"><g id="Layer_1" data-name="Layer 1"><path class="cls-1" d="M83.54,47.18A21.44,21.44,0,0,0,42.36,54a14,14,0,0,0-1.74-.17,13.2,13.2,0,1,0,0,26.4h42.9a16.51,16.51,0,0,0,0-33Z"/><path class="cls-2" d="M53.8,36.44h0A16.47,16.47,0,1,0,42.46,53h0A21.45,21.45,0,0,1,53.8,36.44Z"/><path class="cls-3" d="M42.46,53h0A21.45,21.45,0,0,1,53.8,36.44h0a16.41,16.41,0,0,0-.32-2.35A21.42,21.42,0,0,0,34.17,53.5a17.16,17.16,0,0,0,3.15.3A16.51,16.51,0,0,0,42.46,53Z"/><path class="cls-3" d="M42.25,57.09A23.71,23.71,0,0,1,42.48,54l-.11-.12a.13.13,0,0,1,0,.06,14,14,0,0,0-1.74-.17,13.2,13.2,0,1,0,0,26.4H65.36A23.11,23.11,0,0,1,42.25,57.09Z"/><path class="cls-4" d="M77.19,48.47a16.56,16.56,0,0,0-5.81,4.05A19.77,19.77,0,0,1,94.67,75.81,16.46,16.46,0,0,0,84.58,47.24h0c-.34,0-.68-.06-1-.06a21.43,21.43,0,0,0-34.26-7.56,29.32,29.32,0,0,1,27.91,8.85Z"/><path class="cls-5" d="M42.46,53A16.51,16.51,0,1,1,53.8,36.44"/><line class="cls-5" x1="37.32" y1="1" x2="37.32" y2="10.93"/><line class="cls-5" x1="10.93" y1="37.32" x2="1" y2="37.32"/><line class="cls-5" x1="11.64" y1="11.64" x2="18.66" y2="18.66"/><line class="cls-5" x1="63" y1="11.64" x2="55.98" y2="18.66"/><line class="cls-5" x1="18.66" y1="55.98" x2="11.64" y2="63"/><path class="cls-5" d="M83.54,47.18A21.44,21.44,0,0,0,42.36,54a14,14,0,0,0-1.74-.17,13.2,13.2,0,1,0,0,26.4h42.9a16.51,16.51,0,0,0,0-33Z"/></g></g></svg>