<svg xmlns="http://www.w3.org/2000/svg" viewBox="0 0 101.01 77.9"><defs><style>.cls-1{fill:#cdf0f0;}.cls-2,.cls-5{fill:#000064;}.cls-2{opacity:0.1;}.cls-3{fill:#fff;opacity:0.5;}.cls-4{fill:#e6f0fa;}.cls-5{opacity:0.15;}.cls-6{fill:none;stroke:#2e4369;stroke-linecap:round;stroke-linejoin:round;stroke-width:2px;}</style></defs><title>资源 110</title><g id="图层_2" data-name="图层 2"><g id="Layer_1" data-name="Layer 1"><path class="cls-1" d="M100,57.1a19.8,19.8,0,0,0-19.8-19.8c-.65,0-1.28,0-1.91.09a26.38,26.38,0,0,0-50.68,6.53l-.22,0a16.5,16.5,0,0,0,0,33H80.32A19.8,19.8,0,0,0,100,57.1Z"/><path class="cls-2" d="M27.4,48.85a27.68,27.68,0,0,1,.42-4.67l-.42-.28h0a16.5,16.5,0,0,0,0,33h28A28,28,0,0,1,27.4,48.85Z"/><path class="cls-3" d="M100,57.1A19.81,19.81,0,0,0,80.2,37.3c-.6,0-1.2,0-1.79.09H78.3a26.43,26.43,0,0,0-20-16.2l-.87-.13c-.39,0-.77-.1-1.16-.13-.81-.07-1.63-.13-2.46-.13s-1.73.05-2.58.13a26.23,26.23,0,0,0-16,7.54A36,36,0,0,1,71,39.59a19.29,19.29,0,0,0-1.82,1.07c.38,0,.75-.06,1.13-.06A24.76,24.76,0,0,1,95.06,65.35a25,25,0,0,1-.64,5.52A19.73,19.73,0,0,0,100,57.1ZM76.53,37.66h0Z"/><path class="cls-4" d="M27.62,43.92A26.42,26.42,0,0,1,47.07,21.69,23.09,23.09,0,0,0,24.1,1c-.46,0-.9,0-1.35.07A16.49,16.49,0,0,1,1.07,22.75C1,23.2,1,23.64,1,24.1A23.11,23.11,0,0,0,18.49,46.52h0a16.43,16.43,0,0,1,8.91-2.62Z"/><path class="cls-5" d="M18.5,46.52a16.43,16.43,0,0,1,8.91-2.62l.21,0A26.42,26.42,0,0,1,47.07,21.69c0-.15,0-.3-.06-.45a26.67,26.67,0,0,0-4.76-.44A26.4,26.4,0,0,0,16.07,43.92l-.22,0a16.82,16.82,0,0,0-3.11.3,23,23,0,0,0,5.75,2.32Z"/><path class="cls-6" d="M47.08,21.74A23.09,23.09,0,0,0,24.1,1c-.46,0-.9,0-1.35.07A16.49,16.49,0,0,1,1.07,22.75C1,23.2,1,23.64,1,24.1A23.11,23.11,0,0,0,18.49,46.52"/><path class="cls-6" d="M100,57.1a19.8,19.8,0,0,0-19.8-19.8c-.64,0-1.28,0-1.91.09a26.38,26.38,0,0,0-50.68,6.53l-.21,0a16.5,16.5,0,1,0,0,33H80.32A19.8,19.8,0,0,0,100,57.1Z"/></g></g></svg>