<svg xmlns="http://www.w3.org/2000/svg" viewBox="0 0 86.51 86.51"><defs><style>.cls-1{fill:#e6f0fa;}.cls-2{fill:#fc0;}.cls-3{fill:#000064;opacity:0.15;}.cls-4{fill:none;stroke:#2e4369;stroke-linecap:round;stroke-linejoin:round;stroke-width:2px;}</style></defs><title>资源 120</title><g id="图层_2" data-name="图层 2"><g id="Layer_1" data-name="Layer 1"><path class="cls-1" d="M53.14,27.58l0,0a19.18,19.18,0,0,1,2.32,9.18A19.35,19.35,0,0,1,27.87,54.33l-.15-.3A23.09,23.09,0,1,0,53.14,27.58Z"/><path class="cls-2" d="M36.1,56.18A19.38,19.38,0,0,0,55.48,36.8a19.18,19.18,0,0,0-2.32-9.18l0,0a22.58,22.58,0,0,0-2.61-.16,23.1,23.1,0,0,0-23.1,23.1A22.57,22.57,0,0,0,27.72,54l.15.3A19.35,19.35,0,0,0,36.1,56.18Z"/><path class="cls-3" d="M55.48,65.37A23.08,23.08,0,0,1,32.67,45.78a22.57,22.57,0,0,1-.29-3.51,23,23,0,0,1,1.25-7.47,23,23,0,0,0-6.2,15.72A22.57,22.57,0,0,0,27.72,54a23.07,23.07,0,0,0,44.65,4A23,23,0,0,1,55.48,65.37Z"/><circle class="cls-4" cx="50.53" cy="50.52" r="23.1"/><line class="cls-4" x1="50.5" y1="1" x2="50.5" y2="14.2"/><line class="cls-4" x1="14.2" y1="50.5" x2="1" y2="50.5"/><line class="cls-4" x1="15.5" y1="15.5" x2="24.83" y2="24.83"/><line class="cls-4" x1="85.51" y1="15.5" x2="76.18" y2="24.83"/><line class="cls-4" x1="24.83" y1="76.18" x2="15.5" y2="85.51"/><path class="cls-4" d="M53.16,27.62a19.18,19.18,0,0,1,2.32,9.18A19.35,19.35,0,0,1,27.87,54.33"/></g></g></svg>