<svg xmlns="http://www.w3.org/2000/svg" viewBox="0 0 101.01 101.14"><defs><style>.cls-1{fill:#f5f9fd;}.cls-2{fill:#ff7843;}.cls-3{fill:#000064;opacity:0.15;}.cls-4{fill:none;stroke:#2e4369;stroke-linecap:round;stroke-linejoin:round;stroke-width:2px;}</style></defs><title>资源 57</title><g id="图层_2" data-name="图层 2"><g id="Layer_1" data-name="Layer 1"><path class="cls-1" d="M54.78,9.66A52.05,52.05,0,0,0,40.6,3.27V49.63a272.34,272.34,0,0,0,29.71-4V19.6C65.66,16.82,60.62,13.44,54.78,9.66Z"/><path class="cls-2" d="M14.2,1.13v49.5c9.85,0,18.59-.38,26.41-1V3.27C29.83.23,20.19,1.13,14.2,1.13Z"/><path class="cls-2" d="M93.41,27.53c-8,0-14.93-3-23.1-7.93V45.66c9.63-1.84,17-3.76,23.1-4.93,6.12-1,6.6-4.74,6.6-6.6S99.19,27.54,93.41,27.53Z"/><path class="cls-3" d="M40.61,49.63a272.34,272.34,0,0,0,29.71-4c9.63-1.84,17-3.76,23.1-4.93,6.12-1,6.6-4.74,6.6-6.6a7.86,7.86,0,0,0-.63-3c2,5.12-16.14,1.45-22.47,3-22.9,4.3-47,1.15-62.72.23V50.63C24.05,50.63,32.79,50.25,40.61,49.63Z"/><line class="cls-4" x1="40.6" y1="3.38" x2="40.6" y2="49.61"/><line class="cls-4" x1="70.31" y1="19.6" x2="70.31" y2="45.66"/><line class="cls-4" x1="1" y1="100.14" x2="27.4" y2="100.14"/><path class="cls-4" d="M14.2,100.14v-99c8.54,0,24.5-1.86,40.58,8.53S80.91,27.53,93.41,27.53c5.78,0,6.6,4.74,6.6,6.6s-.48,5.58-6.6,6.6c-14.56,2.81-36.67,9.9-79.22,9.9"/></g></g></svg>