<svg xmlns="http://www.w3.org/2000/svg" viewBox="0 0 100.01 101.01"><defs><style>.cls-1{fill:#cdf0f0;}.cls-2{opacity:0.5;}.cls-3{fill:#fff;}.cls-4{fill:none;stroke:#2e4369;stroke-linecap:round;stroke-linejoin:round;stroke-width:2px;}</style></defs><title>资源 61</title><g id="图层_2" data-name="图层 2"><g id="Layer_1" data-name="Layer 1"><path class="cls-1" d="M92.41,27.4h-3.3a6.6,6.6,0,0,0,0-13.2h-3.3a6.6,6.6,0,0,0,0-13.2H6.6a6.6,6.6,0,0,0,0,13.2H19.8a6.6,6.6,0,0,0,0,13.2H31.35a6.6,6.6,0,1,0,0,13.2H39.6a6.61,6.61,0,0,0,0,13.21H36.3a6.6,6.6,0,1,0,0,13.2,6.6,6.6,0,0,0,0,13.2h6.6a6.6,6.6,0,0,0,0,13.2h6.6a6.6,6.6,0,1,0,0-13.2h9.91a6.6,6.6,0,1,0,0-13.2h9.9a6.6,6.6,0,0,0,0-13.2h9.9a6.61,6.61,0,0,0,0-13.21h13.2a6.6,6.6,0,1,0,0-13.2Z"/><g class="cls-2"><path class="cls-3" d="M31.35,27.4h3.3a6.6,6.6,0,1,1,0-13.2H38A6.6,6.6,0,0,1,38,1H85.81a6.6,6.6,0,0,1,0,13.2H72.61a6.6,6.6,0,0,1,0,13.2H61.06a6.6,6.6,0,0,1,0,13.2H52.81a6.61,6.61,0,0,1,0,13.21h3.3a6.6,6.6,0,1,1,0,13.2,6.6,6.6,0,1,1,0,13.2H44.55a6.6,6.6,0,0,1,0-13.2H42.9a6.6,6.6,0,1,1,0-13.2H39.6a6.61,6.61,0,0,1,0-13.21H31.35a6.6,6.6,0,1,1,0-13.2Z"/><path class="cls-3" d="M56.11,86.81a6.61,6.61,0,1,1-6.61-6.6A6.63,6.63,0,0,1,56.11,86.81Z"/></g><path class="cls-4" d="M6.6,1H85.81a6.61,6.61,0,0,1,6.6,6.6h0a6.6,6.6,0,0,1-6.6,6.6h-66a6.6,6.6,0,0,0-6.6,6.6h0a6.59,6.59,0,0,0,6.6,6.6h72.6A6.6,6.6,0,0,1,99,34h0a6.61,6.61,0,0,1-6.6,6.6H39.62a6.59,6.59,0,0,0-6.6,6.6h0a6.6,6.6,0,0,0,6.6,6.6H69.3a6.61,6.61,0,0,1,6.6,6.6h0A6.6,6.6,0,0,1,69.3,67h-33a6.59,6.59,0,0,0-6.6,6.6h0a6.6,6.6,0,0,0,6.6,6.6H49.48a6.59,6.59,0,0,1,6.6,6.6h0a6.6,6.6,0,0,1-6.6,6.6"/><path class="cls-4" d="M42.93,100h0a6.6,6.6,0,0,1,6.6-6.6"/></g></g></svg>