<svg id="图层_1" data-name="图层 1" xmlns="http://www.w3.org/2000/svg" viewBox="0 0 97.72 94.57"><defs><style>.cls-1{fill:#cdf0f0;}.cls-2{fill:#000064;opacity:0.1;}.cls-2,.cls-3{isolation:isolate;}.cls-3{fill:#fff;opacity:0.5;}.cls-4{fill:#fc0;}.cls-5{fill:none;stroke:#2e4369;stroke-linecap:round;stroke-linejoin:round;stroke-width:2px;}</style></defs><title>300</title><path class="cls-1" d="M80.24,37.29a21.44,21.44,0,0,0-41.18,6.78,12.83,12.83,0,0,0-1.74-.18,13.21,13.21,0,0,0,0,26.41h42.9a16.51,16.51,0,0,0,0-33Z"/><path class="cls-2" d="M39,47.19a24.25,24.25,0,0,1,.23-3.07L39.07,44v.06a12.83,12.83,0,0,0-1.74-.18,13.21,13.21,0,0,0,0,26.41H62.06A23.11,23.11,0,0,1,39,47.19Z"/><path class="cls-3" d="M73.89,38.57a16.51,16.51,0,0,0-5.81,4.06A19.77,19.77,0,0,1,91.37,65.92,16.46,16.46,0,0,0,81.28,37.35h0c-.34,0-.68-.05-1-.05A21.43,21.43,0,0,0,46,29.73a29.23,29.23,0,0,1,27.91,8.84Z"/><path class="cls-4" d="M37.31,43.9a12.83,12.83,0,0,1,1.74.18A21.44,21.44,0,0,1,49.1,27.35h0A16.51,16.51,0,1,0,26.94,49h0A13.2,13.2,0,0,1,37.31,43.9Z"/><path class="cls-2" d="M26.94,48.94h0a13.18,13.18,0,0,1,10.37-5,12.83,12.83,0,0,1,1.74.18A21.45,21.45,0,0,1,49.1,27.35h0a17,17,0,0,0-1.54-2.72A21.44,21.44,0,0,0,30.81,44.07a12.83,12.83,0,0,0-1.74-.18,13.13,13.13,0,0,0-6.66,1.82A16.65,16.65,0,0,0,26.94,48.94Z"/><path class="cls-5" d="M27,48.92a16.51,16.51,0,1,1,22.16-21.6"/><line class="cls-5" x1="34.02" y1="1" x2="34.02" y2="7.63"/><line class="cls-5" x1="7.6" y1="33.99" x2="1" y2="33.99"/><line class="cls-5" x1="10.9" y1="10.89" x2="15.85" y2="15.84"/><line class="cls-5" x1="57.11" y1="10.89" x2="52.15" y2="15.84"/><line class="cls-5" x1="15.85" y1="52.14" x2="10.9" y2="57.09"/><path class="cls-5" d="M80.24,37.28a21.44,21.44,0,0,0-41.18,6.78,12.83,12.83,0,0,0-1.74-.18,13.2,13.2,0,1,0,0,26.4h42.9a16.5,16.5,0,0,0,0-33Z"/><line class="cls-5" x1="73.01" y1="83.5" x2="73.01" y2="80.2"/><line class="cls-5" x1="49.07" y1="80.37" x2="49.07" y2="83.66"/><line class="cls-5" x1="49.09" y1="90.27" x2="49.09" y2="93.57"/><line class="cls-5" x1="73.01" y1="90.1" x2="73.01" y2="93.4"/></svg>