<svg id="图层_1" data-name="图层 1" xmlns="http://www.w3.org/2000/svg" viewBox="0 0 84.51 89.11"><defs><style>.cls-1{fill:#cdf0f0;}.cls-2{fill:#000064;opacity:0.1;}.cls-2,.cls-3{isolation:isolate;}.cls-3{fill:#fff;opacity:0.5;}.cls-4{fill:#e6f0fa;}.cls-5{fill:none;stroke:#2e4369;stroke-linecap:round;stroke-linejoin:round;stroke-width:2px;}</style></defs><title>300n</title><path class="cls-1" d="M66.74,60.41C76,60.35,83.51,53.07,83.51,44.1A16.59,16.59,0,0,0,66.64,27.79a10.86,10.86,0,0,0-1.62.08A22.49,22.49,0,0,0,44.15,14.2c-11.48,0-20.92,8.32-22.3,19.05h-.19A13.85,13.85,0,0,0,7.6,46.82,13.85,13.85,0,0,0,21.66,60.41Z" transform="translate(0 0)"/><path class="cls-2" d="M20.8,37.3a23.35,23.35,0,0,1,.38-4A13.8,13.8,0,0,0,7.6,46.82,13.85,13.85,0,0,0,21.66,60.41H43.9A23.11,23.11,0,0,1,20.8,37.3Z" transform="translate(0 0)"/><path class="cls-3" d="M83.47,44.87V44c0-9-7.57-16.22-16.86-16.22a10.86,10.86,0,0,0-1.62.08l-.15-.31h0A23.08,23.08,0,0,0,44.07,14.21,22.73,22.73,0,0,0,28.87,20a27.73,27.73,0,0,1,29,10.16,15.84,15.84,0,0,0-3,2.54,21.35,21.35,0,0,1,25.31,21l.11-.15a16.35,16.35,0,0,0,3.12-8.27A1.31,1.31,0,0,0,83.47,44.87Z" transform="translate(0 0)"/><path class="cls-4" d="M21.85,33.25A21.8,21.8,0,0,1,34,16.56h0A16.51,16.51,0,0,0,17.5,1c-.42,0-.82.09-1.23.13A11.39,11.39,0,0,1,17.32,5.9,11.55,11.55,0,0,1,5.77,17.45a11.35,11.35,0,0,1-4.66-1c0,.36-.11.7-.11,1.06A16.52,16.52,0,0,0,17,34h0a14.26,14.26,0,0,1,4.67-.78Z" transform="translate(0 0)"/><path class="cls-2" d="M17,34a14.27,14.27,0,0,1,4.67-.79h.19A21.8,21.8,0,0,1,34,16.56h0a16.58,16.58,0,0,0-.7-3.83A22.11,22.11,0,0,0,13.6,31.6h-.19a14.1,14.1,0,0,0-3.66.49A16.55,16.55,0,0,0,17,34Z" transform="translate(0 0)"/><line class="cls-5" x1="56.5" y1="71.57" x2="56.5" y2="78.16"/><path class="cls-5" d="M66.74,60.4A16.56,16.56,0,0,0,83.51,44.1,16.59,16.59,0,0,0,66.64,27.79a10.86,10.86,0,0,0-1.62.08A22.49,22.49,0,0,0,44.15,14.2c-11.48,0-20.92,8.32-22.3,19.05h-.19A13.85,13.85,0,0,0,7.6,46.82,13.83,13.83,0,0,0,21.66,60.4Z" transform="translate(0 0)"/><path class="cls-5" d="M34,16.55A16.5,16.5,0,0,0,17.5,1c-.42,0-.82.09-1.23.13A11.39,11.39,0,0,1,17.32,5.9,11.55,11.55,0,0,1,5.77,17.45a11.35,11.35,0,0,1-4.66-1c0,.36-.11.7-.11,1.06A16.52,16.52,0,0,0,17,34" transform="translate(0 0)"/><line class="cls-5" x1="56.5" y1="84.81" x2="56.5" y2="88.11"/><line class="cls-5" x1="39.07" y1="71.57" x2="39.07" y2="78.16"/><line class="cls-5" x1="39.07" y1="84.81" x2="39.07" y2="88.11"/></svg>