<svg xmlns="http://www.w3.org/2000/svg" viewBox="0 0 84.51 101.01"><defs><style>.cls-1{fill:#cdf0f0;}.cls-2{fill:#000064;opacity:0.1;}.cls-3{fill:#fff;opacity:0.5;}.cls-4{fill:#e6f0fa;}.cls-5{fill:none;stroke:#2e4369;stroke-linecap:round;stroke-linejoin:round;stroke-width:2px;}</style></defs><title>资源 43</title><g id="图层_2" data-name="图层 2"><g id="Layer_1" data-name="Layer 1"><path class="cls-1" d="M66.74,60.41C76,60.35,83.51,53.07,83.51,44.1S76,27.79,66.64,27.79c-.55,0-1.09,0-1.62.08A22.49,22.49,0,0,0,44.15,14.2c-11.48,0-20.92,8.32-22.3,19.05l-.19,0A13.84,13.84,0,0,0,7.6,46.82,13.84,13.84,0,0,0,21.66,60.41Z"/><path class="cls-2" d="M20.8,37.3a23.55,23.55,0,0,1,.38-4A13.8,13.8,0,0,0,7.6,46.82,13.84,13.84,0,0,0,21.66,60.41H43.9A23.11,23.11,0,0,1,20.8,37.3Z"/><path class="cls-3" d="M83.47,44.87c0-.29,0-.57,0-.86,0-9-7.57-16.22-16.86-16.22-.55,0-1.09,0-1.62.08l-.15-.31h0A23.06,23.06,0,0,0,44.07,14.21,22.76,22.76,0,0,0,28.87,20a27.73,27.73,0,0,1,29,10.16,16.21,16.21,0,0,0-3,2.54,21.35,21.35,0,0,1,25.31,21l.11-.15a16.37,16.37,0,0,0,3.12-8.27C83.46,45.18,83.46,45,83.47,44.87Z"/><path class="cls-4" d="M21.85,33.25A21.8,21.8,0,0,1,34,16.56h0A16.5,16.5,0,0,0,17.5,1c-.42,0-.82.09-1.23.13A11.48,11.48,0,0,1,17.32,5.9,11.55,11.55,0,0,1,5.77,17.45a11.37,11.37,0,0,1-4.66-1c0,.36-.11.7-.11,1.06A16.51,16.51,0,0,0,17,34h0a14.43,14.43,0,0,1,4.67-.78Z"/><path class="cls-2" d="M17,34a14.44,14.44,0,0,1,4.67-.79l.19,0A21.8,21.8,0,0,1,34,16.56h0a16.62,16.62,0,0,0-.7-3.83A22.11,22.11,0,0,0,13.6,31.6l-.19,0a14.24,14.24,0,0,0-3.66.49A16.53,16.53,0,0,0,17,34Z"/><line class="cls-5" x1="63.7" y1="73.57" x2="63.7" y2="90.07"/><line class="cls-5" x1="50.5" y1="73.57" x2="50.5" y2="80.16"/><line class="cls-5" x1="37.3" y1="73.57" x2="37.3" y2="90.07"/><line class="cls-5" x1="24.11" y1="73.57" x2="24.11" y2="83.46"/><path class="cls-5" d="M66.74,60.4c9.27,0,16.77-7.33,16.77-16.3S76,27.79,66.64,27.79c-.55,0-1.09,0-1.62.08A22.49,22.49,0,0,0,44.15,14.2c-11.48,0-20.92,8.32-22.3,19.05l-.19,0A13.84,13.84,0,0,0,7.6,46.82,13.83,13.83,0,0,0,21.66,60.4Z"/><path class="cls-5" d="M34,16.55A16.5,16.5,0,0,0,17.5,1c-.42,0-.82.09-1.23.13A11.48,11.48,0,0,1,17.32,5.9,11.55,11.55,0,0,1,5.77,17.45a11.37,11.37,0,0,1-4.66-1c0,.36-.11.7-.11,1.06A16.51,16.51,0,0,0,17,34"/><line class="cls-5" x1="24.1" y1="90.11" x2="24.1" y2="93.41"/><line class="cls-5" x1="37.3" y1="96.71" x2="37.3" y2="100.01"/><line class="cls-5" x1="50.5" y1="86.81" x2="50.5" y2="90.11"/><line class="cls-5" x1="63.71" y1="96.71" x2="63.71" y2="100.01"/></g></g></svg>