<svg xmlns="http://www.w3.org/2000/svg" viewBox="0 0 101.01 77.91"><defs><style>.cls-1{fill:#cdf0f0;}.cls-2{fill:#000064;opacity:0.1;}.cls-3{fill:#fff;opacity:0.5;}.cls-4{fill:none;stroke:#2e4369;stroke-linecap:round;stroke-linejoin:round;stroke-width:2px;}</style></defs><title>309</title><g id="图层_2" data-name="图层 2"><g id="Layer_1" data-name="Layer 1"><path class="cls-1" d="M96.61,50.5a21.41,21.41,0,0,0-18-33c-.28,0-.55,0-.82,0a28,28,0,0,0-53.29,7.34A18.15,18.15,0,0,0,1,42.25,18,18,0,0,0,3,50.5Z"/><path class="cls-2" d="M31.71,50.5a29.51,29.51,0,0,1-7-25.55l-.27-.07a17.83,17.83,0,0,0-5.25-.78A18.12,18.12,0,0,0,3,50.5Z"/><path class="cls-3" d="M68.61,20a21.66,21.66,0,0,0-6.87,5.67,24.71,24.71,0,0,1,33.32,23.2c0,.56,0,1.11-.08,1.65h1.61A21.2,21.2,0,0,0,100,39,21.46,21.46,0,0,0,78.56,17.5c-.28,0-.55,0-.82.05A28.09,28.09,0,0,0,57.38,1.49c-.64-.12-1.28-.23-1.94-.3l-.41,0A27.49,27.49,0,0,0,52.15,1a29.15,29.15,0,0,0-5.23.48A27.8,27.8,0,0,0,33.29,8.33,37.71,37.71,0,0,1,68.61,20Z"/><path class="cls-4" d="M100,39A21.46,21.46,0,0,0,78.56,17.52c-.28,0-.55,0-.82.05a28,28,0,0,0-53.29,7.34,17.84,17.84,0,0,0-5.3-.79A18.15,18.15,0,0,0,1.08,40.6"/><line class="cls-4" x1="1" y1="50.51" x2="100.01" y2="50.51"/><line class="cls-4" x1="10.91" y1="63.71" x2="93.41" y2="63.71"/><line class="cls-4" x1="17.51" y1="76.91" x2="43.87" y2="76.91"/><line class="cls-4" x1="57.13" y1="76.91" x2="90.1" y2="76.91"/></g></g></svg>