<svg xmlns="http://www.w3.org/2000/svg" viewBox="0 0 101.01 101"><defs><style>.cls-1{fill:#cdf0f0;}.cls-2{fill:#000064;opacity:0.1;}.cls-3{fill:#fff;opacity:0.5;}.cls-4{fill:none;stroke:#2e4369;stroke-linecap:round;stroke-linejoin:round;stroke-width:2px;}</style></defs><title>资源 104</title><g id="图层_2" data-name="图层 2"><g id="Layer_1" data-name="Layer 1"><path class="cls-1" d="M78.55,17.51c-.27,0-.54,0-.82,0a28,28,0,0,0-53.29,7.34,18.15,18.15,0,1,0-5.29,35.52h59.4a21.45,21.45,0,1,0,0-42.9Z"/><path class="cls-2" d="M24.1,30.7A30.38,30.38,0,0,1,24.66,25l-.26-.07a17.83,17.83,0,0,0-5.25-.78,18.16,18.16,0,0,0,0,36.31H53.8A29.71,29.71,0,0,1,24.1,30.7Z"/><path class="cls-3" d="M100,39A21.46,21.46,0,0,0,78.55,17.5c-.27,0-.54,0-.82.05A28.06,28.06,0,0,0,57.38,1.49c-.64-.12-1.28-.23-1.94-.3l-.42,0A27.16,27.16,0,0,0,52.15,1a29.07,29.07,0,0,0-5.23.48A27.76,27.76,0,0,0,33.29,8.33,37.71,37.71,0,0,1,68.61,20a21.55,21.55,0,0,0-6.87,5.67,24.71,24.71,0,0,1,33.32,23.2,24.46,24.46,0,0,1-.39,4.23A21.35,21.35,0,0,0,100,39Z"/><path class="cls-4" d="M78.55,17.53c-.27,0-.54,0-.82,0a28,28,0,0,0-53.28,7.34,17.84,17.84,0,0,0-5.3-.79,18.15,18.15,0,0,0,0,36.3h59.4a21.45,21.45,0,1,0,0-42.89Z"/><line class="cls-4" x1="4.3" y1="90.09" x2="1" y2="94.21"/><line class="cls-4" x1="17.5" y1="73.61" x2="11.65" y2="80.91"/><line class="cls-4" x1="18.8" y1="96.71" x2="16.16" y2="100"/><line class="cls-4" x1="37.3" y1="73.61" x2="26.79" y2="86.73"/><line class="cls-4" x1="46.65" y1="86.67" x2="40.61" y2="94.21"/><line class="cls-4" x1="57.1" y1="73.61" x2="54.46" y2="76.91"/><line class="cls-4" x1="62.63" y1="91.43" x2="55.77" y2="100"/><line class="cls-4" x1="76.9" y1="73.61" x2="70.47" y2="81.64"/></g></g></svg>