<svg xmlns="http://www.w3.org/2000/svg" viewBox="0 0 101.01 101"><defs><style>.cls-1{fill:#cdf0f0;}.cls-2{fill:#000064;opacity:0.1;}.cls-3{fill:#fff;opacity:0.5;}.cls-4{fill:none;stroke:#2e4369;stroke-linecap:round;stroke-linejoin:round;stroke-width:2px;}</style></defs><title>资源 107</title><g id="图层_2" data-name="图层 2"><g id="Layer_1" data-name="Layer 1"><path class="cls-1" d="M78.55,17.5c-.27,0-.54,0-.82,0a28,28,0,0,0-53.29,7.34A18.15,18.15,0,1,0,19.15,60.4h59.4a21.45,21.45,0,1,0,0-42.9Z"/><path class="cls-2" d="M24.1,30.69A30.19,30.19,0,0,1,24.66,25l-.26-.08A18.15,18.15,0,1,0,19.15,60.4H53.8A29.71,29.71,0,0,1,24.1,30.69Z"/><path class="cls-3" d="M100,38.94A21.46,21.46,0,0,0,78.55,17.49c-.27,0-.54,0-.82.05A28.06,28.06,0,0,0,57.38,1.48c-.64-.12-1.28-.22-1.94-.3l-.42,0A27.16,27.16,0,0,0,52.15,1a29.07,29.07,0,0,0-5.23.48A27.84,27.84,0,0,0,33.29,8.32,37.71,37.71,0,0,1,68.61,20a21.45,21.45,0,0,0-6.87,5.68A24.63,24.63,0,0,1,94.67,53.07,21.35,21.35,0,0,0,100,38.94Z"/><path class="cls-4" d="M78.56,17.52c-.28,0-.55,0-.82,0A28,28,0,0,0,24.45,24.9a17.84,17.84,0,0,0-5.3-.79,18.15,18.15,0,1,0,0,36.29H78.56a21.44,21.44,0,1,0,0-42.88Z"/><line class="cls-4" x1="73.6" y1="71.95" x2="73.6" y2="88.44"/><line class="cls-4" x1="57.11" y1="71.95" x2="57.11" y2="78.53"/><line class="cls-4" x1="40.6" y1="71.95" x2="40.6" y2="88.44"/><line class="cls-4" x1="24.1" y1="71.95" x2="24.1" y2="81.84"/><line class="cls-4" x1="24.1" y1="90.09" x2="24.1" y2="93.4"/><line class="cls-4" x1="40.6" y1="96.7" x2="40.6" y2="100"/><line class="cls-4" x1="57.11" y1="86.79" x2="57.11" y2="90.09"/><line class="cls-4" x1="73.6" y1="96.7" x2="73.6" y2="100"/></g></g></svg>