<svg xmlns="http://www.w3.org/2000/svg" viewBox="0 0 94.41 101.01"><defs><style>.cls-1{fill:#cdebf2;}.cls-2{fill:#000064;opacity:0.1;}.cls-3{fill:#fff;}.cls-4{fill:none;stroke:#2e4369;stroke-linecap:round;stroke-linejoin:round;stroke-width:2px;}</style></defs><title>资源 85</title><g id="图层_2" data-name="图层 2"><g id="Layer_1" data-name="Layer 1"><path class="cls-1" d="M33.94,81.9a17.09,17.09,0,0,0-.79-4.05C29.78,66,17.5,50.5,17.5,50.5S5.23,66,1.86,77.85a17.62,17.62,0,0,0-.8,4.05c0,.44-.06.86-.06,1.28A16.67,16.67,0,0,0,17.5,100,16.67,16.67,0,0,0,34,83.18C34,82.76,34,82.34,33.94,81.9Z"/><path class="cls-2" d="M22.45,91.76A16.67,16.67,0,0,1,6,74.93c0-.42,0-.84.06-1.28a17.52,17.52,0,0,1,.8-4.05,53.2,53.2,0,0,1,4.41-10.29C7.66,64.72,3.59,71.76,1.86,77.85a17.62,17.62,0,0,0-.8,4.05c0,.44-.06.86-.06,1.28A16.67,16.67,0,0,0,17.5,100,16.55,16.55,0,0,0,33.44,87.45,16.22,16.22,0,0,1,22.45,91.76Z"/><path class="cls-1" d="M93.35,81.9a17.11,17.11,0,0,0-.8-4.05C89.19,66,76.91,50.5,76.91,50.5S64.63,66,61.26,77.85a17.09,17.09,0,0,0-.79,4.05c0,.44-.06.86-.06,1.28a16.5,16.5,0,1,0,33,0C93.41,82.76,93.38,82.34,93.35,81.9Z"/><path class="cls-1" d="M63.64,32.39a16.91,16.91,0,0,0-.79-4C59.48,16.48,47.2,1,47.2,1S34.93,16.48,31.56,28.35a16.93,16.93,0,0,0-.8,4c0,.44-.06.87-.06,1.28a16.5,16.5,0,1,0,33,0C63.7,33.26,63.68,32.83,63.64,32.39Z"/><path class="cls-2" d="M81.86,91.76a16.67,16.67,0,0,1-16.5-16.83c0-.42,0-.84.06-1.28a17,17,0,0,1,.79-4.05,53.27,53.27,0,0,1,4.42-10.29C67.07,64.72,63,71.76,61.26,77.85a17.09,17.09,0,0,0-.79,4.05c0,.44-.06.86-.06,1.28a16.46,16.46,0,0,0,32.44,4.27A16.22,16.22,0,0,1,81.86,91.76Z"/><path class="cls-2" d="M52.15,42.25a16.67,16.67,0,0,1-16.5-16.83c0-.41,0-.84.07-1.28a16.91,16.91,0,0,1,.79-4A53.28,53.28,0,0,1,40.92,9.8c-3.56,5.42-7.63,12.45-9.36,18.55a16.91,16.91,0,0,0-.79,4c0,.44-.07.87-.07,1.28A16.46,16.46,0,0,0,63.15,38,16.24,16.24,0,0,1,52.15,42.25Z"/><path class="cls-3" d="M88.18,78.56c1.21,3.44.1,7-2.48,7.87s-5.65-1.14-6.86-4.58-.11-7,2.47-7.87S87,75.12,88.18,78.56Z"/><path class="cls-3" d="M28.77,78.56c1.21,3.44.11,7-2.47,7.87s-5.65-1.14-6.87-4.58-.1-7,2.48-7.87S27.56,75.12,28.77,78.56Z"/><path class="cls-3" d="M58.47,29.06c1.22,3.43.11,7-2.47,7.87s-5.65-1.14-6.86-4.58-.11-7,2.47-7.87S57.26,25.62,58.47,29.06Z"/><path class="cls-4" d="M33.94,81.9a17.09,17.09,0,0,0-.79-4.05C29.78,66,17.5,50.5,17.5,50.5S5.23,66,1.86,77.85a17.62,17.62,0,0,0-.8,4.05c0,.44-.06.86-.06,1.28A16.67,16.67,0,0,0,17.5,100,16.67,16.67,0,0,0,34,83.18C34,82.76,34,82.34,33.94,81.9Z"/><path class="cls-4" d="M93.35,81.9a17.11,17.11,0,0,0-.8-4.05C89.19,66,76.91,50.5,76.91,50.5S64.63,66,61.26,77.85a17.09,17.09,0,0,0-.79,4.05c0,.44-.06.86-.06,1.28a16.5,16.5,0,1,0,33,0C93.41,82.76,93.38,82.34,93.35,81.9Z"/><path class="cls-4" d="M63.64,32.39a16.91,16.91,0,0,0-.79-4C59.48,16.48,47.2,1,47.2,1S34.93,16.48,31.56,28.35a16.93,16.93,0,0,0-.8,4c0,.44-.06.87-.06,1.28a16.5,16.5,0,1,0,33,0C63.7,33.26,63.68,32.83,63.64,32.39Z"/></g></g></svg>