<?xml version="1.0" encoding="utf-8"?>
<!-- Generator: Adobe Illustrator 23.0.3, SVG Export Plug-In . SVG Version: 6.00 Build 0)  -->
<svg version="1.1" id="图层_1" xmlns="http://www.w3.org/2000/svg" xmlns:xlink="http://www.w3.org/1999/xlink" x="0px" y="0px"
	 viewBox="0 0 101 101" style="enable-background:new 0 0 101 101;" xml:space="preserve">
<style type="text/css">
	.st0{fill:#CDF0F0;}
	.st1{opacity:0.1;fill:#000064;enable-background:new    ;}
	.st2{opacity:0.5;fill:#FFFFFF;enable-background:new    ;}
	.st3{fill:none;stroke:#2E4369;stroke-width:2;stroke-linecap:round;stroke-linejoin:round;}
</style>
<title>资源 45</title>
<path class="st0" d="M78.6,17.5c-0.3,0-0.5,0-0.8,0C71.4,3.4,54.9-3,40.8,3.3c-8.8,3.9-14.9,12-16.3,21.5C14.8,21.9,4.7,27.4,1.8,37
	s2.5,19.7,12.1,22.6c1.7,0.5,3.5,0.8,5.2,0.8h59.4c11.8,0,21.5-9.6,21.5-21.4S90.4,17.5,78.6,17.5C78.6,17.5,78.6,17.5,78.6,17.5
	L78.6,17.5z"/>
<path class="st1" d="M24.1,30.7c0-1.9,0.2-3.8,0.6-5.7l-0.3-0.1c-1.7-0.5-3.5-0.8-5.3-0.8c-10,0.2-18,8.6-17.7,18.6
	c0.2,9.7,8,17.5,17.7,17.7h34.7C37.4,60.5,24.1,47.1,24.1,30.7C24.1,30.7,24.1,30.7,24.1,30.7z"/>
<path class="st2" d="M100,39c0-11.9-9.6-21.5-21.4-21.5c0,0,0,0,0,0c-0.3,0-0.5,0-0.8,0C74,9.2,66.4,3.2,57.4,1.5
	c-0.6-0.1-1.3-0.2-1.9-0.3H55c-1-0.1-1.9-0.2-2.9-0.2c-1.8,0-3.5,0.2-5.2,0.5c-5.1,1-9.8,3.3-13.6,6.8c13-2.6,26.4,1.8,35.3,11.7
	c-2.7,1.4-5,3.3-6.9,5.7c12.8-4.8,27,1.8,31.8,14.6c1,2.8,1.6,5.7,1.5,8.6c0,1.4-0.1,2.8-0.4,4.2C98.1,49.2,100,44.2,100,39z"/>
<path class="st0" d="M29,72c0,0.9-0.8,1.6-1.7,1.6c-0.9,0-1.6-0.8-1.6-1.7c0-0.9,0.8-1.6,1.6-1.6C28.3,70.3,29.1,71,29,72
	C29.1,72,29.1,72,29,72z"/>
<path class="st0" d="M42.3,78.6c0,0.9-0.7,1.7-1.7,1.7c-0.9,0-1.6-0.7-1.6-1.7s0.7-1.7,1.6-1.7S42.3,77.6,42.3,78.6L42.3,78.6z"/>
<path class="st0" d="M39.5,94.8c0,0.9-0.7,1.7-1.7,1.7c-0.9,0-1.6-0.7-1.6-1.7s0.7-1.7,1.6-1.7S39.5,93.8,39.5,94.8L39.5,94.8z"/>
<path class="st0" d="M62.1,91.4c0,0.9-0.7,1.7-1.7,1.7c-0.9,0-1.6-0.7-1.6-1.7s0.7-1.7,1.6-1.7S62.1,90.4,62.1,91.4L62.1,91.4z"/>
<path class="st0" d="M75.3,91.8c0,0.9-0.7,1.7-1.7,1.7c-0.9,0-1.7-0.7-1.7-1.7c0-0.9,0.7-1.7,1.7-1.7S75.3,90.8,75.3,91.8L75.3,91.8
	z"/>
<path class="st0" d="M78.6,75.3c0,0.9-0.7,1.7-1.7,1.7c-0.9,0-1.7-0.7-1.7-1.7c0-0.9,0.7-1.7,1.7-1.7S78.6,74.3,78.6,75.3L78.6,75.3
	z"/>
<path class="st0" d="M22.5,85.2c0,0.9-0.7,1.7-1.7,1.7c-0.9,0-1.6-0.7-1.6-1.7c0-0.9,0.7-1.7,1.6-1.7C21.7,83.5,22.5,84.2,22.5,85.2
	L22.5,85.2z"/>
<path class="st0" d="M62.1,72c0,0.9-0.7,1.7-1.7,1.7c-0.9,0-1.6-0.7-1.6-1.7s0.7-1.7,1.6-1.7S62.1,71.1,62.1,72L62.1,72z"/>
<path class="st3" d="M78.6,17.5c-0.3,0-0.5,0-0.8,0C71.5,3.4,54.9-3,40.8,3.3c-8.8,3.9-14.9,12-16.3,21.5
	c-9.6-2.9-19.7,2.5-22.7,12.1s2.5,19.7,12.1,22.7c1.7,0.5,3.5,0.8,5.3,0.8h59.4c11.8,0.3,21.7-9.1,21.9-21
	c0.3-11.8-9.1-21.7-21-21.9C79.2,17.5,78.9,17.5,78.6,17.5L78.6,17.5z"/>
<path class="st3" d="M29,72c0,0.9-0.8,1.6-1.7,1.6c-0.9,0-1.6-0.8-1.6-1.7c0-0.9,0.8-1.6,1.6-1.6C28.3,70.3,29.1,71,29,72
	C29.1,72,29.1,72,29,72z"/>
<path class="st3" d="M42.3,78.6c0,0.9-0.7,1.7-1.7,1.7c-0.9,0-1.6-0.7-1.6-1.7s0.7-1.7,1.6-1.7S42.3,77.6,42.3,78.6L42.3,78.6z"/>
<path class="st3" d="M39.5,94.8c0,0.9-0.7,1.7-1.7,1.7c-0.9,0-1.6-0.7-1.6-1.7s0.7-1.7,1.6-1.7S39.5,93.8,39.5,94.8L39.5,94.8z"/>
<path class="st3" d="M62.1,91.4c0,0.9-0.7,1.7-1.7,1.7c-0.9,0-1.6-0.7-1.6-1.7s0.7-1.7,1.6-1.7S62.1,90.4,62.1,91.4L62.1,91.4z"/>
<path class="st3" d="M75.3,91.8c0,0.9-0.7,1.7-1.7,1.7c-0.9,0-1.7-0.7-1.7-1.7c0-0.9,0.7-1.7,1.7-1.7S75.3,90.8,75.3,91.8L75.3,91.8
	z"/>
<path class="st3" d="M78.6,75.3c0,0.9-0.7,1.7-1.7,1.7c-0.9,0-1.7-0.7-1.7-1.7c0-0.9,0.7-1.7,1.7-1.7S78.6,74.3,78.6,75.3L78.6,75.3
	z"/>
<path class="st3" d="M22.5,85.2c0,0.9-0.7,1.7-1.7,1.7c-0.9,0-1.6-0.7-1.6-1.7c0-0.9,0.7-1.7,1.6-1.7C21.7,83.5,22.5,84.2,22.5,85.2
	L22.5,85.2z"/>
<path class="st3" d="M62.1,72c0,0.9-0.7,1.7-1.7,1.7c-0.9,0-1.6-0.7-1.6-1.7s0.7-1.7,1.6-1.7S62.1,71.1,62.1,72L62.1,72z"/>
</svg>
