<svg xmlns="http://www.w3.org/2000/svg" viewBox="0 0 101.01 101.01"><defs><style>.cls-1{fill:#cdf0f0;}.cls-2{fill:#000064;opacity:0.1;}.cls-3{fill:#fff;opacity:0.5;}.cls-4{fill:none;stroke:#2e4369;stroke-linecap:round;stroke-linejoin:round;stroke-width:2px;}</style></defs><title>资源 45</title><g id="图层_2" data-name="图层 2"><g id="Layer_1" data-name="Layer 1"><path class="cls-1" d="M78.55,17.51c-.27,0-.54,0-.82,0a28,28,0,0,0-53.29,7.34,18.15,18.15,0,1,0-5.29,35.52h59.4a21.45,21.45,0,1,0,0-42.9Z"/><path class="cls-2" d="M24.1,30.7A30.38,30.38,0,0,1,24.66,25l-.26-.07a17.83,17.83,0,0,0-5.25-.78,18.16,18.16,0,0,0,0,36.31H53.8A29.71,29.71,0,0,1,24.1,30.7Z"/><path class="cls-3" d="M100,39A21.46,21.46,0,0,0,78.55,17.5c-.27,0-.54,0-.82.05A28.06,28.06,0,0,0,57.38,1.49c-.64-.12-1.28-.23-1.94-.3l-.42,0A27.16,27.16,0,0,0,52.15,1a29.07,29.07,0,0,0-5.23.48A27.76,27.76,0,0,0,33.29,8.33,37.71,37.71,0,0,1,68.61,20a21.55,21.55,0,0,0-6.87,5.67,24.71,24.71,0,0,1,33.32,23.2,24.46,24.46,0,0,1-.39,4.23A21.35,21.35,0,0,0,100,39Z"/><path class="cls-1" d="M29.05,72A1.65,1.65,0,1,1,27.4,70.3,1.65,1.65,0,0,1,29.05,72Z"/><path class="cls-1" d="M42.25,78.55A1.65,1.65,0,1,1,40.6,76.9,1.65,1.65,0,0,1,42.25,78.55Z"/><path class="cls-1" d="M45.55,91.76a1.65,1.65,0,1,1-1.65-1.65A1.65,1.65,0,0,1,45.55,91.76Z"/><path class="cls-1" d="M62.06,98.36a1.65,1.65,0,1,1-1.65-1.65A1.65,1.65,0,0,1,62.06,98.36Z"/><path class="cls-1" d="M75.25,91.76a1.65,1.65,0,1,1-1.65-1.65A1.65,1.65,0,0,1,75.25,91.76Z"/><path class="cls-1" d="M29.05,98.36a1.65,1.65,0,1,1-1.65-1.65A1.65,1.65,0,0,1,29.05,98.36Z"/><path class="cls-1" d="M78.55,75.26a1.65,1.65,0,1,1-1.65-1.65A1.65,1.65,0,0,1,78.55,75.26Z"/><path class="cls-1" d="M58.75,85.16a1.65,1.65,0,1,1-1.65-1.65A1.65,1.65,0,0,1,58.75,85.16Z"/><path class="cls-1" d="M22.45,85.15A1.65,1.65,0,1,1,20.8,83.5,1.65,1.65,0,0,1,22.45,85.15Z"/><path class="cls-1" d="M62.06,72a1.65,1.65,0,1,1-1.65-1.65A1.65,1.65,0,0,1,62.06,72Z"/><path class="cls-4" d="M78.55,17.53c-.27,0-.54,0-.81,0a28,28,0,0,0-53.29,7.34,18.15,18.15,0,1,0-5.3,35.51h59.4a21.45,21.45,0,1,0,0-42.89Z"/><path class="cls-4" d="M29.05,72A1.65,1.65,0,1,1,27.4,70.3,1.65,1.65,0,0,1,29.05,72Z"/><path class="cls-4" d="M42.25,78.55A1.65,1.65,0,1,1,40.6,76.9,1.65,1.65,0,0,1,42.25,78.55Z"/><path class="cls-4" d="M45.55,91.76a1.65,1.65,0,1,1-1.65-1.65A1.65,1.65,0,0,1,45.55,91.76Z"/><path class="cls-4" d="M62.06,98.36a1.65,1.65,0,1,1-1.65-1.65A1.65,1.65,0,0,1,62.06,98.36Z"/><path class="cls-4" d="M75.25,91.76a1.65,1.65,0,1,1-1.65-1.65A1.65,1.65,0,0,1,75.25,91.76Z"/><path class="cls-4" d="M29.05,98.36a1.65,1.65,0,1,1-1.65-1.65A1.65,1.65,0,0,1,29.05,98.36Z"/><path class="cls-4" d="M78.55,75.26a1.65,1.65,0,1,1-1.65-1.65A1.65,1.65,0,0,1,78.55,75.26Z"/><path class="cls-4" d="M58.75,85.16a1.65,1.65,0,1,1-1.65-1.65A1.65,1.65,0,0,1,58.75,85.16Z"/><path class="cls-4" d="M22.45,85.15A1.65,1.65,0,1,1,20.8,83.5,1.65,1.65,0,0,1,22.45,85.15Z"/><path class="cls-4" d="M62.06,72a1.65,1.65,0,1,1-1.65-1.65A1.65,1.65,0,0,1,62.06,72Z"/></g></g></svg>