<?xml version="1.0" encoding="utf-8"?>
<!-- Generator: Adobe Illustrator 23.0.3, SVG Export Plug-In . SVG Version: 6.00 Build 0)  -->
<svg version="1.1" id="图层_1" xmlns="http://www.w3.org/2000/svg" xmlns:xlink="http://www.w3.org/1999/xlink" x="0px" y="0px"
	 viewBox="0 0 101 101" style="enable-background:new 0 0 101 101;" xml:space="preserve">
<style type="text/css">
	.st0{fill:#CDF0F0;}
	.st1{opacity:0.1;fill:#000064;enable-background:new    ;}
	.st2{opacity:0.5;fill:#FFFFFF;enable-background:new    ;}
	.st3{fill:none;stroke:#2E4369;stroke-width:2;stroke-linecap:round;stroke-linejoin:round;}
</style>
<title>资源 76</title>
<path class="st0" d="M78.6,17.5c-0.3,0-0.6,0-0.8,0C71.5,3.4,54.9-3,40.8,3.3c-8.8,3.9-14.9,12-16.3,21.5C14.9,21.9,4.7,27.4,1.8,37
	s2.5,19.7,12.1,22.6c1.7,0.5,3.5,0.8,5.2,0.8h59.4c11.8,0,21.4-9.6,21.4-21.5C100,27.1,90.4,17.5,78.6,17.5L78.6,17.5z"/>
<path class="st1" d="M24.1,30.7c0-1.9,0.2-3.8,0.6-5.7l-0.3-0.1c-1.7-0.5-3.5-0.8-5.3-0.8c-10,0.2-18,8.6-17.7,18.6
	c0.2,9.7,8,17.5,17.7,17.7h34.7C37.4,60.5,24.1,47.1,24.1,30.7C24.1,30.7,24.1,30.7,24.1,30.7z"/>
<path class="st2" d="M100,39c0-11.9-9.6-21.5-21.4-21.5c0,0,0,0,0,0c-0.3,0-0.6,0-0.8,0C74,9.2,66.4,3.2,57.4,1.5
	c-0.6-0.1-1.3-0.2-1.9-0.3H55c-1-0.1-1.9-0.2-2.9-0.2c-1.8,0-3.5,0.2-5.2,0.5c-5.1,1-9.8,3.3-13.6,6.8c13-2.6,26.4,1.8,35.3,11.7
	c-2.7,1.4-5,3.3-6.9,5.7c12.8-4.8,27,1.8,31.8,14.6c1,2.8,1.6,5.7,1.5,8.6c0,1.4-0.1,2.8-0.4,4.2C98.1,49.2,100,44.2,100,39z"/>
<line class="st3" x1="22.5" y1="73.6" x2="11.9" y2="86.8"/>
<line class="st3" x1="61.3" y1="73.6" x2="40.1" y2="100"/>
<path class="st3" d="M78.6,17.5c-0.3,0-0.5,0-0.8,0C71.5,3.4,54.9-3,40.8,3.3c-8.8,3.9-14.9,12-16.3,21.5
	c-9.6-2.9-19.7,2.5-22.7,12.1s2.5,19.7,12.1,22.7c1.7,0.5,3.5,0.8,5.3,0.8h59.4c11.8,0.3,21.7-9.1,21.9-21
	c0.3-11.8-9.1-21.7-21-21.9C79.2,17.5,78.9,17.5,78.6,17.5L78.6,17.5z"/>
<path class="st0" d="M39.3,75.3c0,0.9-0.7,1.7-1.7,1.7c-0.9,0-1.6-0.7-1.6-1.7s0.7-1.7,1.6-1.7S39.3,74.4,39.3,75.3L39.3,75.3z"/>
<circle class="st0" cx="74.1" cy="75.6" r="1.7"/>
<path class="st0" d="M36,88.5c0,0.9-0.7,1.7-1.7,1.7c-0.9,0-1.6-0.7-1.6-1.7s0.7-1.7,1.6-1.7S36,87.6,36,88.5L36,88.5z"/>
<path class="st0" d="M72.5,88.8c0,0.9-0.7,1.7-1.7,1.7c-0.9,0-1.7-0.7-1.7-1.7c0-0.9,0.7-1.7,1.7-1.7S72.5,87.9,72.5,88.8L72.5,88.8
	z"/>
<path class="st3" d="M39.3,75.3c0,0.9-0.7,1.7-1.7,1.7c-0.9,0-1.6-0.7-1.6-1.7s0.7-1.7,1.6-1.7S39.3,74.4,39.3,75.3L39.3,75.3z"/>
<circle class="st3" cx="74.1" cy="75.6" r="1.7"/>
<path class="st3" d="M36,88.5c0,0.9-0.7,1.7-1.7,1.7c-0.9,0-1.6-0.7-1.6-1.7s0.7-1.7,1.6-1.7S36,87.6,36,88.5L36,88.5z"/>
<path class="st3" d="M72.5,88.8c0,0.9-0.7,1.7-1.7,1.7c-0.9,0-1.7-0.7-1.7-1.7c0-0.9,0.7-1.7,1.7-1.7S72.5,87.9,72.5,88.8L72.5,88.8
	z"/>
</svg>
