<svg xmlns="http://www.w3.org/2000/svg" viewBox="0 0 101.01 87.82"><defs><style>.cls-1{fill:#cdf0f0;}.cls-2{fill:#000064;opacity:0.1;}.cls-3{fill:#fff;opacity:0.5;}.cls-4{fill:#cdebf2;}.cls-5{fill:none;stroke:#2e4369;stroke-linecap:round;stroke-linejoin:round;stroke-width:2px;}</style></defs><title>资源 84</title><g id="图层_2" data-name="图层 2"><g id="Layer_1" data-name="Layer 1"><path class="cls-1" d="M78.56,17.51c-.28,0-.55,0-.82,0a28,28,0,0,0-53.29,7.34,18.15,18.15,0,1,0-5.3,35.52H78.56a21.45,21.45,0,0,0,0-42.9Z"/><path class="cls-2" d="M24.1,30.7A29.51,29.51,0,0,1,24.67,25l-.27-.07a17.83,17.83,0,0,0-5.25-.78,18.16,18.16,0,0,0,0,36.31H53.81A29.71,29.71,0,0,1,24.1,30.7Z"/><path class="cls-3" d="M100,39A21.45,21.45,0,0,0,78.56,17.5c-.28,0-.55,0-.82.05A28.09,28.09,0,0,0,57.38,1.49c-.64-.12-1.28-.23-1.94-.3L55,1.14c-1-.09-1.91-.14-2.88-.14a29.15,29.15,0,0,0-5.23.48A27.8,27.8,0,0,0,33.29,8.33,37.71,37.71,0,0,1,68.61,20a21.66,21.66,0,0,0-6.87,5.67,24.71,24.71,0,0,1,33.32,23.2,24.46,24.46,0,0,1-.39,4.23A21.3,21.3,0,0,0,100,39Z"/><path class="cls-4" d="M60.37,76a10.9,10.9,0,0,0-.48-2.43c-2-7.12-9.39-16.41-9.39-16.41s-7.36,9.29-9.39,16.41A10.35,10.35,0,0,0,40.64,76c0,.26,0,.52,0,.77a9.9,9.9,0,1,0,19.8,0C60.4,76.48,60.39,76.22,60.37,76Z"/><path class="cls-2" d="M53.8,80.22a10,10,0,0,1-9.9-10.1c0-.24,0-.5,0-.76a9.88,9.88,0,0,1,.48-2.43A18.66,18.66,0,0,1,45,65.11a37.48,37.48,0,0,0-3.93,8.42A10.35,10.35,0,0,0,40.64,76c0,.26,0,.52,0,.77a9.9,9.9,0,0,0,19.76,1A9.74,9.74,0,0,1,53.8,80.22Z"/><path class="cls-5" d="M67,60.42H78.56a21.45,21.45,0,1,0,0-42.89c-.28,0-.55,0-.82,0a28,28,0,0,0-53.29,7.34,18.15,18.15,0,1,0-5.3,35.51H34"/><path class="cls-5" d="M60.37,76a10.9,10.9,0,0,0-.48-2.43c-2-7.12-9.39-16.41-9.39-16.41s-7.36,9.29-9.39,16.41A10.35,10.35,0,0,0,40.64,76c0,.26,0,.52,0,.77a9.9,9.9,0,1,0,19.8,0C60.4,76.48,60.39,76.22,60.37,76Z"/></g></g></svg>