<?xml version="1.0" encoding="utf-8"?>
<!-- Generator: Adobe Illustrator 23.0.3, SVG Export Plug-In . SVG Version: 6.00 Build 0)  -->
<svg version="1.1" id="图层_1" xmlns="http://www.w3.org/2000/svg" xmlns:xlink="http://www.w3.org/1999/xlink" x="0px" y="0px"
	 viewBox="0 0 97.7 101" style="enable-background:new 0 0 97.7 101;" xml:space="preserve">
<style type="text/css">
	.st0{fill:#CDF0F0;}
	.st1{opacity:0.1;fill:#000064;enable-background:new    ;}
	.st2{opacity:0.5;fill:#FFFFFF;enable-background:new    ;}
	.st3{fill:#FFCC00;}
	.st4{fill:none;stroke:#2E4369;stroke-width:2;stroke-linecap:round;stroke-linejoin:round;}
</style>
<title>资源 92</title>
<path class="st0" d="M80.3,37.3c-4.6-10.9-17.1-16.1-28-11.5C44.7,28.9,39.6,36,39.1,44.1c-0.6-0.1-1.2-0.1-1.8-0.2
	c-7.3,0-13.2,5.9-13.2,13.2S30,70.3,37.3,70.3h42.9c9.1,0,16.5-7.4,16.5-16.5S89.4,37.3,80.3,37.3L80.3,37.3z"/>
<path class="st1" d="M39,47.2c0-1,0.1-2.1,0.2-3.1L39.1,44v0.1c-0.6-0.1-1.2-0.1-1.8-0.2c-7.3,0-13.2,5.9-13.2,13.2
	c0,7.3,5.9,13.2,13.2,13.2h24.7C49.3,70.3,39,59.9,39,47.2z"/>
<path class="st2" d="M73.9,38.6c-2.2,0.9-4.2,2.3-5.8,4c10.7-2.1,21.2,4.8,23.3,15.6c0.5,2.5,0.5,5.2,0,7.7c6.7-6.2,7.1-16.6,1-23.3
	c-2.9-3.1-6.9-5-11.1-5.3l0,0c-0.3,0-0.7,0-1,0c-4.5-10.9-17.1-16.1-28-11.6c-2.3,1-4.4,2.3-6.3,4C56.2,27.5,66.8,30.9,73.9,38.6z"
	/>
<path class="st3" d="M37.3,43.9c0.6,0,1.2,0.1,1.7,0.2c0.5-6.9,4.2-13.1,10.1-16.7l0,0c-3.7-8.3-13.4-12.1-21.8-8.4
	s-12.1,13.4-8.4,21.8c1.6,3.6,4.5,6.6,8.1,8.3l0,0C29.5,45.8,33.3,43.9,37.3,43.9z"/>
<path class="st1" d="M27,48.9L27,48.9c2.5-3.2,6.3-5,10.4-5c0.6,0,1.2,0.1,1.7,0.2c0.5-6.9,4.2-13.1,10-16.8l0,0
	c-0.4-1-0.9-1.9-1.5-2.7c-9.3,2.1-16.1,10-16.7,19.4c-0.6-0.1-1.2-0.1-1.8-0.2c-2.3,0-4.6,0.6-6.7,1.8C23.7,47,25.3,48.1,27,48.9z"
	/>
<path class="st4" d="M27,48.9c-8.2-3.9-11.8-13.7-7.9-22s13.7-11.8,22-7.9c3.6,1.7,6.4,4.6,8,8.2"/>
<line class="st4" x1="34" y1="1" x2="34" y2="7.6"/>
<line class="st4" x1="7.6" y1="34" x2="1" y2="34"/>
<line class="st4" x1="11.6" y1="11.6" x2="15.4" y2="15.4"/>
<line class="st4" x1="56.4" y1="11.6" x2="52.7" y2="15.4"/>
<line class="st4" x1="15.4" y1="52.7" x2="11.6" y2="56.4"/>
<path class="st4" d="M80.2,37.3c-4.6-10.9-17.1-16.1-28-11.5C44.7,28.9,39.6,36,39.1,44.1c-0.6-0.1-1.2-0.2-1.7-0.2
	c-7.3,0-13.2,5.9-13.2,13.2S30,70.3,37.3,70.3h42.9c9.1,0,16.5-7.4,16.5-16.5S89.3,37.3,80.2,37.3L80.2,37.3z"/>
<line class="st4" x1="30.7" y1="80.2" x2="27.4" y2="83.5"/>
<line class="st4" x1="62.2" y1="80.2" x2="50.7" y2="93.4"/>
<line class="st4" x1="23.2" y1="89.6" x2="23.2" y2="89.6"/>
<line class="st4" x1="46.4" y1="100" x2="46.4" y2="100"/>
<path class="st0" d="M47,84.8c-0.4,0.8-1.4,1.1-2.2,0.7c-0.8-0.4-1.1-1.4-0.7-2.2c0.4-0.8,1.4-1.1,2.2-0.7C47.1,83,47.5,84,47,84.8
	L47,84.8z"/>
<path class="st0" d="M38,95c-0.4,0.8-1.4,1.1-2.2,0.7c-0.8-0.4-1.1-1.4-0.7-2.2c0.4-0.8,1.4-1.1,2.2-0.7C38.1,93.2,38.4,94.2,38,95
	L38,95z"/>
<path class="st4" d="M47,84.8c-0.4,0.8-1.4,1.1-2.2,0.7c-0.8-0.4-1.1-1.4-0.7-2.2c0.4-0.8,1.4-1.1,2.2-0.7C47.1,83,47.5,84,47,84.8
	L47,84.8z"/>
<path class="st4" d="M38,95c-0.4,0.8-1.4,1.1-2.2,0.7c-0.8-0.4-1.1-1.4-0.7-2.2c0.4-0.8,1.4-1.1,2.2-0.7C38.1,93.2,38.4,94.2,38,95
	L38,95z"/>
<circle class="st0" cx="76.5" cy="83.9" r="1.7"/>
<path class="st0" d="M70.2,95.6c-0.3,0.8-1.3,1.3-2.1,0.9s-1.3-1.3-0.9-2.1c0.3-0.8,1.3-1.3,2.1-0.9C70.1,93.8,70.5,94.8,70.2,95.6
	L70.2,95.6z"/>
<circle class="st4" cx="76.5" cy="83.9" r="1.7"/>
<path class="st4" d="M70.2,95.6c-0.3,0.8-1.3,1.3-2.1,0.9s-1.3-1.3-0.9-2.1c0.3-0.8,1.3-1.3,2.1-0.9C70.1,93.8,70.5,94.8,70.2,95.6
	L70.2,95.6z"/>
</svg>
