<?xml version="1.0" encoding="utf-8"?>
<!-- Generator: Adobe Illustrator 23.0.3, SVG Export Plug-In . SVG Version: 6.00 Build 0)  -->
<svg version="1.1" id="图层_1" xmlns="http://www.w3.org/2000/svg" xmlns:xlink="http://www.w3.org/1999/xlink" x="0px" y="0px"
	 viewBox="0 0 84.5 101" style="enable-background:new 0 0 84.5 101;" xml:space="preserve">
<style type="text/css">
	.st0{fill:#CDF0F0;}
	.st1{opacity:0.1;fill:#000064;enable-background:new    ;}
	.st2{opacity:0.5;fill:#FFFFFF;enable-background:new    ;}
	.st3{fill:#E6F0FA;}
	.st4{fill:none;stroke:#2E4369;stroke-width:2;stroke-linecap:round;stroke-linejoin:round;}
</style>
<title>资源 73</title>
<path class="st0" d="M66.7,60.4c9.3-0.1,16.8-7.3,16.8-16.3S76,27.8,66.6,27.8c-0.6,0-1.1,0-1.6,0.1c-3.6-8.4-11.8-13.7-20.9-13.7
	c-11.5,0-20.9,8.3-22.3,19h-0.2C14,33.1,7.7,39.2,7.6,46.8c0.1,7.6,6.4,13.7,14.1,13.6H66.7z"/>
<path class="st1" d="M20.8,37.3c0-1.3,0.1-2.7,0.4-4c-7.4,0.1-13.4,6.1-13.6,13.5c0.1,7.6,6.4,13.7,14.1,13.6h22.2
	C31.1,60.4,20.8,50.1,20.8,37.3z"/>
<path class="st2" d="M83.5,44.9c0-0.3,0-0.6,0-0.9c0-9-7.6-16.2-16.9-16.2c-0.6,0-1.1,0-1.6,0.1l-0.2-0.3l0,0
	C61.1,19.5,53,14.3,44.1,14.2c-5.6,0-11,2.1-15.2,5.8c10.8-2.8,22.3,1.2,29,10.2c-1.1,0.7-2.1,1.6-3,2.5c11.6-2.2,22.8,5.4,24.9,17
	c0.2,1.3,0.4,2.6,0.4,4l0.1-0.2c1.8-2.4,2.9-5.3,3.1-8.3C83.5,45.2,83.5,45,83.5,44.9z"/>
<path class="st3" d="M21.9,33.3c1-7.2,5.6-13.5,12.1-16.7l0,0C33.5,7.8,26.3,1,17.5,1c-0.4,0-0.8,0.1-1.2,0.1c0.7,1.5,1,3.1,1,4.8
	c0,6.4-5.2,11.6-11.5,11.6c-1.6,0-3.2-0.3-4.7-1c0,0.4-0.1,0.7-0.1,1.1C1,26.4,8.1,33.7,17,34l0,0c1.5-0.5,3.1-0.8,4.7-0.8
	L21.9,33.3z"/>
<path class="st1" d="M17,34c1.5-0.5,3.1-0.8,4.7-0.8h0.2c1-7.2,5.6-13.5,12.1-16.6l0,0c-0.1-1.3-0.3-2.6-0.7-3.8
	c-10.1,1-18.3,8.8-19.7,18.9h-0.2c-1.2,0-2.5,0.2-3.7,0.5C12,33.3,14.5,33.9,17,34z"/>
<path class="st4" d="M66.7,60.4c9.3-0.1,16.8-7.3,16.8-16.3s-7.5-16.3-16.9-16.3c-0.6,0-1.1,0-1.6,0.1c-3.6-8.3-11.8-13.7-20.9-13.7
	c-11.5,0-20.9,8.3-22.3,19h-0.2c-7.6-0.1-13.9,6-14.1,13.6c0,0,0,0,0,0c0.1,7.6,6.4,13.7,14.1,13.6H66.7z"/>
<path class="st4" d="M34,16.6C33.5,7.8,26.3,1,17.5,1c-0.4,0-0.8,0.1-1.2,0.1c0.7,1.5,1,3.1,1,4.8c0,6.4-5.1,11.5-11.5,11.5
	c-1.6,0-3.2-0.3-4.7-1c0,0.4-0.1,0.7-0.1,1C1,26.4,8.1,33.7,17,34"/>
<line class="st4" x1="24.7" y1="68.2" x2="21.4" y2="71.5"/>
<line class="st4" x1="56.2" y1="68.2" x2="44.7" y2="81.4"/>
<line class="st4" x1="17.2" y1="77.6" x2="17.2" y2="77.6"/>
<line class="st4" x1="40.4" y1="88" x2="40.4" y2="88"/>
<path class="st0" d="M41,72.8c-0.4,0.8-1.4,1.1-2.2,0.7c-0.8-0.4-1.1-1.4-0.7-2.2c0.4-0.8,1.4-1.1,2.2-0.7C41.1,71,41.5,72,41,72.8
	L41,72.8z"/>
<path class="st0" d="M32,83c-0.4,0.8-1.4,1.1-2.2,0.7c-0.8-0.4-1.1-1.4-0.7-2.2c0.4-0.8,1.4-1.1,2.2-0.7C32.1,81.2,32.4,82.2,32,83
	L32,83z"/>
<path class="st4" d="M41,72.8c-0.4,0.8-1.4,1.1-2.2,0.7c-0.8-0.4-1.1-1.4-0.7-2.2c0.4-0.8,1.4-1.1,2.2-0.7C41.1,71,41.5,72,41,72.8
	L41,72.8z"/>
<path class="st4" d="M32,83c-0.4,0.8-1.4,1.1-2.2,0.7c-0.8-0.4-1.1-1.4-0.7-2.2c0.4-0.8,1.4-1.1,2.2-0.7C32.1,81.2,32.4,82.2,32,83
	L32,83z"/>
<circle class="st0" cx="70.5" cy="71.9" r="1.7"/>
<path class="st0" d="M64.2,83.6c-0.3,0.8-1.3,1.3-2.1,0.9c-0.8-0.3-1.3-1.3-0.9-2.1c0.3-0.8,1.3-1.3,2.1-0.9
	C64.1,81.8,64.5,82.8,64.2,83.6L64.2,83.6z"/>
<circle class="st4" cx="70.5" cy="71.9" r="1.7"/>
<path class="st4" d="M64.2,83.6c-0.3,0.8-1.3,1.3-2.1,0.9c-0.8-0.3-1.3-1.3-0.9-2.1c0.3-0.8,1.3-1.3,2.1-0.9
	C64.1,81.8,64.5,82.8,64.2,83.6L64.2,83.6z"/>
</svg>
