<?xml version="1.0" encoding="utf-8"?>
<!-- Generator: Adobe Illustrator 23.0.3, SVG Export Plug-In . SVG Version: 6.00 Build 0)  -->
<svg version="1.1" id="图层_1" xmlns="http://www.w3.org/2000/svg" xmlns:xlink="http://www.w3.org/1999/xlink" x="0px" y="0px"
	 viewBox="0 0 97.7 97.7" style="enable-background:new 0 0 97.7 97.7;" xml:space="preserve">
<style type="text/css">
	.st0{fill:#CDF0F0;}
	.st1{opacity:0.1;fill:#000064;enable-background:new    ;}
	.st2{opacity:0.5;fill:#FFFFFF;enable-background:new    ;}
	.st3{fill:#FFCC00;}
	.st4{fill:none;stroke:#2E4369;stroke-width:2;stroke-linecap:round;stroke-linejoin:round;}
</style>
<title>资源 37</title>
<path class="st0" d="M80.2,37.3c-4.6-10.9-17.1-16.1-28-11.5C44.7,28.9,39.6,36,39.1,44.1c-0.6-0.1-1.2-0.2-1.7-0.2
	c-7.3,0-13.2,5.9-13.2,13.2S30,70.3,37.3,70.3c0,0,0,0,0,0h42.9c9.1-0.3,16.2-8,15.9-17.1C95.8,44.6,88.9,37.6,80.2,37.3L80.2,37.3z
	"/>
<path class="st1" d="M39,47.2c0-1,0.1-2.1,0.2-3.1L39.1,44c0,0,0,0,0,0.1c-0.6-0.1-1.2-0.2-1.7-0.2c-7.3,0-13.2,5.9-13.2,13.2
	S30,70.3,37.3,70.3c0,0,0,0,0,0h24.7C49.3,70.3,39,59.9,39,47.2z"/>
<path class="st2" d="M73.9,38.6c-2.2,0.9-4.2,2.3-5.8,4.1c10.7-2.2,21.1,4.8,23.3,15.5c0.5,2.6,0.5,5.2,0,7.8
	c6.7-6.1,7.2-16.5,1-23.3c-2.9-3.1-6.9-5-11.1-5.3l0,0c-0.3,0-0.7-0.1-1-0.1c-4.5-10.9-17.1-16.1-28-11.6c-2.3,1-4.4,2.3-6.3,4
	C56.2,27.5,66.9,30.9,73.9,38.6L73.9,38.6z"/>
<path class="st3" d="M37.3,43.9c0.6,0,1.2,0.1,1.7,0.2c0.5-6.9,4.2-13.1,10-16.7l0,0C45.4,19,35.6,15.3,27.3,19s-12.1,13.5-8.4,21.8
	c1.6,3.6,4.4,6.5,8,8.2l0,0C29.4,45.8,33.3,43.9,37.3,43.9z"/>
<path class="st1" d="M26.9,49L26.9,49c2.5-3.2,6.3-5,10.4-5c0.6,0,1.2,0.1,1.7,0.2c0.4-6.9,4.2-13.2,10-16.8l0,0
	c-0.4-1-0.9-1.9-1.5-2.7c-9.3,2.1-16.1,10-16.7,19.4c-0.6-0.1-1.2-0.2-1.7-0.2c-2.3,0-4.6,0.6-6.7,1.8C23.7,47.1,25.3,48.2,26.9,49z
	"/>
<path class="st0" d="M39,78.6c0,0.9-0.7,1.7-1.7,1.7c-0.9,0-1.6-0.7-1.6-1.7s0.7-1.7,1.6-1.7S39,77.6,39,78.6L39,78.6z"/>
<path class="st0" d="M65.4,78.6c0,0.9-0.7,1.7-1.7,1.7c-0.9,0-1.6-0.7-1.6-1.7s0.7-1.7,1.6-1.7S65.4,77.6,65.4,78.6L65.4,78.6z"/>
<circle class="st0" cx="80.2" cy="81.9" r="1.7"/>
<path class="st0" d="M48.7,88.8c0,0.9-0.7,1.7-1.7,1.7c-0.9,0-1.6-0.7-1.6-1.7s0.7-1.7,1.6-1.7S48.7,87.8,48.7,88.8L48.7,88.8z"/>
<path class="st0" d="M69.1,91.8c0,0.9-0.7,1.7-1.6,1.7c-0.9,0-1.7-0.7-1.7-1.7s0.7-1.7,1.7-1.7S69.1,90.8,69.1,91.8L69.1,91.8z"/>
<path class="st4" d="M27,48.9c-8.2-3.9-11.8-13.7-7.9-22s13.7-11.8,22-7.9c3.6,1.7,6.4,4.6,8,8.2"/>
<line class="st4" x1="34" y1="1" x2="34" y2="7.6"/>
<line class="st4" x1="7.6" y1="34" x2="1" y2="34"/>
<line class="st4" x1="10.9" y1="10.9" x2="15.9" y2="15.9"/>
<line class="st4" x1="57.1" y1="10.9" x2="52.2" y2="15.9"/>
<line class="st4" x1="15.9" y1="52.2" x2="10.9" y2="57.1"/>
<path class="st4" d="M80.2,37.3c-4.6-10.9-17.1-16.1-28-11.5C44.7,28.9,39.6,36,39.1,44.1c-0.6-0.1-1.2-0.2-1.7-0.2
	c-7.3,0-13.2,5.9-13.2,13.2S30,70.3,37.3,70.3h42.9c9.1,0,16.5-7.4,16.5-16.5S89.3,37.3,80.2,37.3L80.2,37.3z"/>
<path class="st4" d="M39,78.6c0,0.9-0.7,1.7-1.7,1.7c-0.9,0-1.6-0.7-1.6-1.7s0.7-1.7,1.6-1.7S39,77.6,39,78.6L39,78.6z"/>
<path class="st4" d="M65.4,78.6c0,0.9-0.7,1.7-1.7,1.7c-0.9,0-1.6-0.7-1.6-1.7s0.7-1.7,1.6-1.7S65.4,77.6,65.4,78.6L65.4,78.6z"/>
<circle class="st4" cx="80.2" cy="81.9" r="1.7"/>
<path class="st4" d="M48.7,88.8c0,0.9-0.7,1.7-1.7,1.7c-0.9,0-1.6-0.7-1.6-1.7s0.7-1.7,1.6-1.7S48.7,87.8,48.7,88.8L48.7,88.8z"/>
<path class="st4" d="M69.1,91.8c0,0.9-0.7,1.7-1.6,1.7c-0.9,0-1.7-0.7-1.7-1.7s0.7-1.7,1.7-1.7S69.1,90.8,69.1,91.8L69.1,91.8z"/>
</svg>
