<?xml version="1.0" encoding="utf-8"?>
<!-- Generator: Adobe Illustrator 23.0.3, SVG Export Plug-In . SVG Version: 6.00 Build 0)  -->
<svg version="1.1" id="图层_1" xmlns="http://www.w3.org/2000/svg" xmlns:xlink="http://www.w3.org/1999/xlink" x="0px" y="0px"
	 viewBox="0 0 84.5 101" style="enable-background:new 0 0 84.5 101;" xml:space="preserve">
<style type="text/css">
	.st0{fill:#CDF0F0;}
	.st1{opacity:0.1;fill:#000064;enable-background:new    ;}
	.st2{opacity:0.5;fill:#FFFFFF;enable-background:new    ;}
	.st3{fill:#E6F0FA;}
	.st4{fill:none;stroke:#2E4369;stroke-width:2;stroke-linecap:round;stroke-linejoin:round;}
</style>
<title>资源 42</title>
<path class="st0" d="M66.7,60.4c9.3-0.1,16.8-7.3,16.8-16.3S76,27.8,66.6,27.8c-0.6,0-1.1,0-1.6,0.1c-3.6-8.4-11.8-13.7-20.9-13.7
	c-11.5,0-20.9,8.3-22.3,19h-0.2C14,33.1,7.7,39.2,7.6,46.8c0.1,7.6,6.4,13.7,14.1,13.6H66.7z"/>
<path class="st1" d="M20.8,37.3c0-1.3,0.1-2.7,0.4-4c-7.4,0.1-13.4,6.1-13.6,13.5c0.1,7.6,6.4,13.7,14.1,13.6h22.2
	C31.1,60.4,20.8,50.1,20.8,37.3z"/>
<path class="st2" d="M83.5,44.9c0-0.3,0-0.6,0-0.9c0-9-7.6-16.2-16.9-16.2c-0.6,0-1.1,0-1.6,0.1c0-0.1-0.1-0.2-0.1-0.3l0,0
	C61.1,19.5,53,14.3,44.1,14.2c-5.6,0-11,2.1-15.2,5.8c10.8-2.8,22.3,1.2,29,10.2c-1.1,0.7-2.1,1.6-3,2.5c1.3-0.2,2.6-0.4,3.8-0.4
	c11.8,0,21.5,9.6,21.5,21.4c0,0,0,0,0,0l0.1-0.2c1.8-2.4,2.9-5.3,3.1-8.3C83.4,45.2,83.5,45,83.5,44.9z"/>
<path class="st3" d="M21.8,33.3c1-7.3,5.6-13.5,12.2-16.7l0,0C33.5,7.8,26.3,1,17.5,1c-0.4,0-0.8,0.1-1.2,0.1
	c0.7,1.5,1.1,3.1,1.1,4.8c0,6.4-5.2,11.6-11.5,11.6c-1.6,0-3.2-0.3-4.7-1c0,0.4-0.1,0.7-0.1,1.1C1,26.4,8.1,33.7,17,34l0,0
	c1.5-0.5,3.1-0.8,4.7-0.8L21.8,33.3z"/>
<path class="st1" d="M17,34c1.5-0.5,3.1-0.8,4.7-0.8h0.2c1-7.2,5.6-13.5,12.1-16.6l0,0c-0.1-1.3-0.3-2.6-0.7-3.8
	c-10.1,1-18.3,8.8-19.7,18.9c-0.1,0-0.1,0-0.2,0c-1.2,0-2.5,0.2-3.7,0.5C12,33.3,14.5,33.9,17,34z"/>
<path class="st0" d="M27.5,70.3c0,0.9-0.7,1.7-1.7,1.7c-0.9,0-1.6-0.7-1.6-1.7c0-0.9,0.7-1.7,1.6-1.7S27.5,69.4,27.5,70.3L27.5,70.3
	z"/>
<path class="st0" d="M60.5,70.3c0,0.9-0.7,1.7-1.7,1.7c-0.9,0-1.6-0.7-1.6-1.7s0.7-1.7,1.6-1.7S60.5,69.4,60.5,70.3L60.5,70.3z"/>
<path class="st0" d="M32,85.8c0,0.9-0.7,1.7-1.7,1.7c-0.9,0-1.6-0.7-1.6-1.7s0.7-1.7,1.6-1.7S32,84.8,32,85.8L32,85.8z"/>
<path class="st0" d="M47.7,80.6c0,0.9-0.7,1.7-1.6,1.7c-0.9,0-1.7-0.7-1.7-1.6s0.7-1.7,1.6-1.7h0C46.9,78.9,47.6,79.6,47.7,80.6z"/>
<path class="st0" d="M69,82.3c0,0.9-0.7,1.7-1.7,1.7c-0.9,0-1.7-0.7-1.7-1.7c0-0.9,0.7-1.7,1.7-1.7S69,81.3,69,82.3L69,82.3z"/>
<path class="st4" d="M66.7,60.4c9.3-0.1,16.8-7.3,16.8-16.3S76,27.8,66.6,27.8c-0.6,0-1.1,0-1.6,0.1c-3.6-8.3-11.8-13.7-20.9-13.7
	c-11.5,0-20.9,8.3-22.3,19h-0.2C14,33.1,7.7,39.2,7.6,46.8c0.1,7.6,6.4,13.7,14.1,13.6H66.7z"/>
<path class="st4" d="M34,16.6C33.5,7.8,26.3,1,17.5,1c-0.4,0-0.8,0.1-1.2,0.1c0.7,1.5,1,3.1,1,4.8c0,6.4-5.2,11.6-11.5,11.6
	c-1.6,0-3.2-0.3-4.7-1c0,0.4-0.1,0.7-0.1,1C1,26.4,8.1,33.7,17,34"/>
<path class="st4" d="M27.5,70.3c0,0.9-0.7,1.7-1.7,1.7c-0.9,0-1.6-0.7-1.6-1.7c0-0.9,0.7-1.7,1.6-1.7S27.5,69.4,27.5,70.3L27.5,70.3
	z"/>
<path class="st4" d="M60.5,70.3c0,0.9-0.7,1.7-1.7,1.7c-0.9,0-1.6-0.7-1.6-1.7s0.7-1.7,1.6-1.7S60.5,69.4,60.5,70.3L60.5,70.3z"/>
<path class="st4" d="M32,85.8c0,0.9-0.7,1.7-1.7,1.7c-0.9,0-1.6-0.7-1.6-1.7s0.7-1.7,1.6-1.7S32,84.8,32,85.8L32,85.8z"/>
<path class="st4" d="M47.7,80.6c0,0.9-0.7,1.7-1.6,1.7c-0.9,0-1.7-0.7-1.7-1.6s0.7-1.7,1.6-1.7h0C46.9,78.9,47.6,79.6,47.7,80.6z"/>
<path class="st4" d="M69,82.3c0,0.9-0.7,1.7-1.7,1.7c-0.9,0-1.7-0.7-1.7-1.7c0-0.9,0.7-1.7,1.7-1.7S69,81.3,69,82.3L69,82.3z"/>
</svg>
