<svg xmlns="http://www.w3.org/2000/svg" viewBox="0 0 101.01 101.01"><defs><style>.cls-1{fill:#c4ffff;}.cls-2{fill:#000064;opacity:0.15;}.cls-3{fill:#fff;opacity:0.5;}.cls-4{fill:none;stroke:#2e4369;stroke-linecap:round;stroke-linejoin:round;stroke-width:2px;}</style></defs><title>资源 30</title><g id="图层_2" data-name="图层 2"><g id="Layer_1" data-name="Layer 1"><polygon class="cls-1" points="50.51 1 37.3 17.5 15.5 15.5 20.8 38.95 1 50.51 22.45 62.06 15.5 85.51 38.95 80.21 50.51 100.01 62.06 80.21 85.51 85.51 81.86 63.71 100.01 50.51 81.86 37.3 85.51 15.5 63.71 17.5 50.51 1"/><polygon class="cls-2" points="15.85 85.16 15.76 84.63 15.5 85.51 38.95 80.21 50.51 100.01 50.51 50.51 15.85 85.16"/><polygon class="cls-2" points="48.85 50.51 1 50.51 22.45 62.06 48.85 50.51"/><polygon class="cls-3" points="52.16 50.51 100.01 50.51 81.86 37.3 52.16 50.51"/><polygon class="cls-3" points="85.16 15.85 85.45 15.85 85.51 15.5 63.71 17.5 50.51 1 50.51 50.51 85.16 15.85"/><polyline class="cls-4" points="36.31 3.31 50.5 17.5 64.69 3.31"/><polyline class="cls-4" points="36.31 97.7 50.5 83.51 64.69 97.7"/><polyline class="cls-4" points="3.32 64.69 17.5 50.51 3.32 36.32"/><polyline class="cls-4" points="97.7 64.69 83.51 50.51 97.7 36.32"/><polyline class="cls-4" points="7.34 27.41 27.4 27.41 27.4 7.35"/><polyline class="cls-4" points="73.61 93.67 73.61 73.61 93.67 73.61"/><polyline class="cls-4" points="27.4 93.67 27.4 73.61 7.34 73.61"/><polyline class="cls-4" points="93.66 27.41 73.6 27.41 73.6 7.34"/><line class="cls-4" x1="1" y1="50.5" x2="100.01" y2="50.5"/><line class="cls-4" x1="50.5" y1="1" x2="50.5" y2="100.01"/><line class="cls-4" x1="15.5" y1="15.5" x2="85.51" y2="85.51"/><line class="cls-4" x1="85.51" y1="15.5" x2="15.5" y2="85.51"/></g></g></svg>