<svg xmlns="http://www.w3.org/2000/svg" viewBox="0 0 101.01 66.75"><defs><style>.cls-1{fill:#cdf0f0;}.cls-2{fill:none;stroke:#2e4369;stroke-linecap:round;stroke-linejoin:round;stroke-width:2px;}</style></defs><title>资源 34</title><g id="图层_2" data-name="图层 2"><g id="Layer_1" data-name="Layer 1"><path class="cls-1" d="M29.7,25.38A39.5,39.5,0,0,1,2.42,13.88,4.95,4.95,0,0,1,9.48,6.94c1.74,1.77,17.66,16.89,38.14,2.2,26.78-19.22,48.55,1.31,50.95,3.72a4.95,4.95,0,0,1-7,7C88.64,16.92,73.1,3,53.39,17.18,45.07,23.15,37,25.38,29.7,25.38Z"/><path class="cls-1" d="M30.49,44.68a38.42,38.42,0,0,1-14.53-3,5,5,0,0,1,3.74-9.17c9.59,3.9,19,2.64,27.92-3.77C69.53,13.07,90,23.51,98.57,32.16a5,5,0,1,1-7,7c-1.76-1.77-17.83-16.9-38.16-2.32C46.12,42.05,38.37,44.68,30.49,44.68Z"/><path class="cls-1" d="M30.12,65.75C18,65.75,7.85,59.49,2.42,54A5,5,0,0,1,9.48,47c1.77,1.81,17.91,17.17,38.14,2.65,15-10.78,28.64-8.8,37.42-5.24a4.95,4.95,0,1,1-3.72,9.17c-9.41-3.81-18.81-2.43-27.93,4.12C45.26,63.56,37.33,65.75,30.12,65.75Z"/><path class="cls-2" d="M29.7,25.38A39.5,39.5,0,0,1,2.42,13.88,4.95,4.95,0,0,1,9.48,6.94c1.74,1.77,17.66,16.89,38.14,2.2,26.78-19.22,48.55,1.31,50.95,3.72a4.95,4.95,0,0,1-7,7C88.64,16.92,73.1,3,53.39,17.18,45.07,23.15,37,25.38,29.7,25.38Z"/><path class="cls-2" d="M30.49,44.68a38.42,38.42,0,0,1-14.53-3,5,5,0,0,1,3.74-9.17c9.59,3.9,19,2.64,27.92-3.77C69.53,13.07,90,23.51,98.57,32.16a5,5,0,1,1-7,7c-1.76-1.77-17.83-16.9-38.16-2.32C46.12,42.05,38.37,44.68,30.49,44.68Z"/><path class="cls-2" d="M30.12,65.75C18,65.75,7.85,59.49,2.42,54A5,5,0,0,1,9.48,47c1.77,1.81,17.91,17.17,38.14,2.65,15-10.78,28.64-8.8,37.42-5.24a4.95,4.95,0,1,1-3.72,9.17c-9.41-3.81-18.81-2.43-27.93,4.12C45.26,63.56,37.33,65.75,30.12,65.75Z"/></g></g></svg>