<svg xmlns="http://www.w3.org/2000/svg" viewBox="0 0 101.01 81.2"><defs><style>.cls-1{fill:#cdf0f0;}.cls-2{fill:#fff;opacity:0.5;}.cls-3{fill:none;stroke:#2e4369;stroke-linecap:round;stroke-linejoin:round;stroke-width:2px;}</style></defs><title>资源 67</title><g id="图层_2" data-name="图层 2"><g id="Layer_1" data-name="Layer 1"><path class="cls-1" d="M90.11,53.79H68.66a6.6,6.6,0,1,1,0-13.2H80.21a13.2,13.2,0,1,0-10-21.84c0-.42.06-.84.06-1.26a16.5,16.5,0,1,0-32.67,3.3H24.11a23.1,23.1,0,1,0,0,46.2c6.6,0,11.19-.08,13.84,4.08h0a13.19,13.19,0,0,0,25.71-3.26h9.94c3.3,0,6-.63,9.4,2.77h0a9.9,9.9,0,1,0,7.08-16.81Z"/><path class="cls-2" d="M90.11,53.79a9.87,9.87,0,0,0-7.4,3.34c.27,0,.53,0,.8,0a13.2,13.2,0,0,1,13.2,13.2c0,.27,0,.54,0,.81a9.9,9.9,0,0,0-6.56-17.31Z"/><path class="cls-2" d="M50.51,53.79A13.19,13.19,0,0,0,40.09,58.9a17.18,17.18,0,0,1,2.17-.16,16.5,16.5,0,0,1,16.5,16.5,17.18,17.18,0,0,1-.16,2.17,13.19,13.19,0,0,0-8.09-23.62Z"/><path class="cls-2" d="M73.61,17.49A16.5,16.5,0,0,1,90.11,34a16,16,0,0,1-.18,2.31A13.18,13.18,0,0,0,71.3,17.67,16,16,0,0,1,73.61,17.49Z"/><path class="cls-2" d="M53.81,1A16.46,16.46,0,0,0,41.68,6.32,19.82,19.82,0,0,1,65.36,25.74,20.48,20.48,0,0,1,65,29.61,16.48,16.48,0,0,0,53.81,1Z"/><path class="cls-3" d="M53.8,1A16.5,16.5,0,0,1,70.3,17.5h0A16.5,16.5,0,0,1,53.8,34H10.9A9.9,9.9,0,0,0,1,43.9H1a9.9,9.9,0,0,0,9.9,9.9H50.51A13.2,13.2,0,0,1,63.71,67h0a13.2,13.2,0,0,1-13.2,13.2"/><path class="cls-3" d="M40.59,7.6a6.6,6.6,0,0,1,6.6,6.6h0a6.59,6.59,0,0,1-6.6,6.6H20.8"/><path class="cls-3" d="M80.2,14.2A13.2,13.2,0,0,1,93.4,27.4h0A13.2,13.2,0,0,1,80.2,40.6H70.29"/><path class="cls-3" d="M90.11,73.6a9.89,9.89,0,0,0,9.9-9.89h0a9.9,9.9,0,0,0-9.9-9.9H70.31"/></g></g></svg>