<svg xmlns="http://www.w3.org/2000/svg" viewBox="0 0 101.01 94.41"><defs><style>.cls-1{fill:#cdf0f0;}.cls-2{opacity:0.5;}.cls-3{fill:#fff;}.cls-4{fill:none;stroke:#2e4369;stroke-linecap:round;stroke-linejoin:round;stroke-width:2px;}</style></defs><title>资源 55</title><g id="图层_2" data-name="图层 2"><g id="Layer_1" data-name="Layer 1"><path class="cls-1" d="M93.4,1H1C39.78,22.18-1.75,29.19,26.58,52.7,47.2,70.31,50.23,80.76,43.9,93.41h6.6s31.76-23.79,23.1-39.6C46.24,20,118.85,35.38,93.4,1Z"/><g class="cls-2"><path class="cls-3" d="M63.62,1H34.55c12.2,21.18-.86,28.19,8.05,51.7C49.09,70.31,50,80.76,48.05,93.41h2.08s10-23.79,7.26-39.6C48.79,20,71.63,35.38,63.62,1Z"/></g><line class="cls-4" x1="1" y1="1" x2="93.4" y2="1"/><line class="cls-4" x1="17.5" y1="14.2" x2="100.01" y2="14.2"/><line class="cls-4" x1="10.9" y1="27.4" x2="83.5" y2="27.4"/><line class="cls-4" x1="17.5" y1="40.6" x2="67" y2="40.6"/><line class="cls-4" x1="27.4" y1="53.81" x2="73.6" y2="53.81"/><line class="cls-4" x1="40.6" y1="67.01" x2="73.61" y2="67.01"/><line class="cls-4" x1="47.2" y1="80.21" x2="63.7" y2="80.21"/><line class="cls-4" x1="43.9" y1="93.41" x2="50.5" y2="93.41"/></g></g></svg>