<svg xmlns="http://www.w3.org/2000/svg" viewBox="0 0 48.2 101.01"><defs><style>.cls-1{fill:#eef5fc;}.cls-2{fill:#90d2ea;}.cls-3{fill:#000064;opacity:0.1;}.cls-4{fill:#fff;opacity:0.5;}.cls-5{fill:none;stroke:#2e4369;stroke-linecap:round;stroke-linejoin:round;stroke-width:2px;}</style></defs><title>资源 13</title><g id="图层_2" data-name="图层 2"><g id="Layer_1" data-name="Layer 1"><path class="cls-1" d="M37.3,58V14.2a13.2,13.2,0,1,0-26.4,0V58a23.1,23.1,0,1,0,26.4,0Z"/><path class="cls-2" d="M29.05,68.34V58.76a4.95,4.95,0,1,0-9.9,0v9.58a9.9,9.9,0,1,0,9.9,0Z"/><path class="cls-3" d="M29.05,93.41A23.11,23.11,0,0,1,6,70.3,22.87,22.87,0,0,1,8.41,60,23.08,23.08,0,1,0,44.75,87.22,23,23,0,0,1,29.05,93.41Z"/><path class="cls-3" d="M27.4,81.85A9.9,9.9,0,0,1,17.5,72a10.06,10.06,0,0,1,.4-2.76A9.9,9.9,0,1,0,33.61,79.66,9.86,9.86,0,0,1,27.4,81.85Z"/><path class="cls-4" d="M29.05,53.81h0a5,5,0,0,1-4.95-5V12.55a5,5,0,0,1,4.95-5h0a5,5,0,0,1,4.95,5v36.3A5,5,0,0,1,29.05,53.81Z"/><circle class="cls-4" cx="32.35" cy="71.96" r="8.25" transform="matrix(0.16, -0.99, 0.99, 0.16, -43.86, 92.37)"/><path class="cls-5" d="M37.3,58V14.2a13.2,13.2,0,1,0-26.4,0V58a23.1,23.1,0,1,0,26.4,0Z"/><path class="cls-5" d="M29.05,68.34V58.76a4.95,4.95,0,1,0-9.9,0v9.58a9.9,9.9,0,1,0,9.9,0Z"/></g></g></svg>