<svg xmlns="http://www.w3.org/2000/svg" viewBox="0 0 77.47 101.01"><defs><style>.cls-1{fill:#bcd7f2;}.cls-2{fill:none;stroke:#2e4369;stroke-linecap:round;stroke-linejoin:round;stroke-width:2px;}</style></defs><title>资源 26</title><g id="图层_2" data-name="图层 2"><g id="Layer_1" data-name="Layer 1"><path class="cls-1" d="M55.52,100A36.41,36.41,0,0,1,19.15,63.64V47.27A36.38,36.38,0,0,1,76.47,17.53l-5.71,8.09A26.48,26.48,0,0,0,29.05,47.27V63.64a26.46,26.46,0,0,0,41.7,21.64l5.71,8.1A36.19,36.19,0,0,1,55.52,100Z"/><circle class="cls-2" cx="10.9" cy="10.9" r="9.9" transform="translate(-2.2 19.02) rotate(-76.77)"/><path class="cls-2" d="M55.52,100A36.41,36.41,0,0,1,19.15,63.64V47.27A36.38,36.38,0,0,1,76.47,17.53l-5.71,8.09A26.48,26.48,0,0,0,29.05,47.27V63.64a26.46,26.46,0,0,0,41.7,21.64l5.71,8.1A36.19,36.19,0,0,1,55.52,100Z"/></g></g></svg>