<svg xmlns="http://www.w3.org/2000/svg" viewBox="0 0 68.01 101.01"><defs><style>.cls-1{fill:#cdebf2;}.cls-2{fill:#000064;opacity:0.1;}.cls-3{fill:#fff;}.cls-4{fill:none;stroke:#2e4369;stroke-linecap:round;stroke-linejoin:round;stroke-width:2px;}</style></defs><title>资源 58</title><g id="图层_2" data-name="图层 2"><g id="Layer_1" data-name="Layer 1"><path class="cls-1" d="M66.88,63.8a34.21,34.21,0,0,0-1.58-8.09C58.56,32,34,1,34,1S9.45,32,2.71,55.71A33.72,33.72,0,0,0,1.13,63.8c-.08.86-.13,1.72-.13,2.55C1,84.94,15.78,100,34,100S67,84.94,67,66.35C67,65.52,67,64.66,66.88,63.8Z"/><path class="cls-2" d="M42.25,85.16c-18.22,0-33-15.07-33-33.67,0-.82.05-1.68.13-2.55A33.73,33.73,0,0,1,11,40.86a94.06,94.06,0,0,1,6.18-15.49C11.28,34.93,5.49,45.92,2.71,55.71A33.72,33.72,0,0,0,1.13,63.8c-.08.86-.13,1.72-.13,2.55C1,84.94,15.78,100,34,100A33.11,33.11,0,0,0,65.87,75,32.58,32.58,0,0,1,42.25,85.16Z"/><path class="cls-3" d="M57.11,63.71a11.56,11.56,0,0,1-23.11,0c0-6.38,5.17-19.81,11.55-19.81S57.11,57.33,57.11,63.71Z"/><path class="cls-4" d="M66.88,63.8a34.21,34.21,0,0,0-1.58-8.09C58.56,32,34,1,34,1S9.45,32,2.71,55.71A33.72,33.72,0,0,0,1.13,63.8c-.08.86-.13,1.72-.13,2.55C1,84.94,15.78,100,34,100S67,84.94,67,66.35C67,65.52,67,64.66,66.88,63.8Z"/><line class="cls-4" x1="43.9" y1="47.24" x2="24.1" y2="80.24"/><path class="cls-4" d="M30.7,50.51a6.6,6.6,0,1,1-6.6-6.6A6.6,6.6,0,0,1,30.7,50.51Z"/><path class="cls-4" d="M50.5,76.94a6.6,6.6,0,1,1-6.6-6.6A6.59,6.59,0,0,1,50.5,76.94Z"/></g></g></svg>