<svg xmlns="http://www.w3.org/2000/svg" viewBox="0 0 101.01 101.01"><defs><style>.cls-1{fill:#3b99ff;}.cls-2{fill:#000064;opacity:0.1;}.cls-3{fill:#fff;opacity:0.5;}.cls-4{fill:none;stroke:#2e4369;stroke-linecap:round;stroke-linejoin:round;stroke-width:2px;}</style></defs><title>资源 60</title><g id="图层_2" data-name="图层 2"><g id="Layer_1" data-name="Layer 1"><path class="cls-1" d="M87.63,50.5A15,15,0,0,1,100,57.11a49.51,49.51,0,1,0-99,0,14.89,14.89,0,0,1,24.75,0A14.91,14.91,0,0,1,38.13,50.5,14.69,14.69,0,0,1,50.5,57.11,14.79,14.79,0,0,1,62.88,50.5a15,15,0,0,1,12.38,6.61A14.87,14.87,0,0,1,87.63,50.5Z"/><path class="cls-2" d="M50.5,7.59A49.51,49.51,0,0,0,1,57.11a14.89,14.89,0,0,1,24.75,0C25.75,29.77,36.83,7.59,50.5,7.59Z"/><path class="cls-3" d="M50.5,7.59c13.67,0,24.76,22.18,24.76,49.52a14.89,14.89,0,0,1,24.75,0A49.52,49.52,0,0,0,50.5,7.59Z"/><line class="cls-4" x1="50.5" y1="7.59" x2="50.5" y2="1"/><path class="cls-4" d="M63.71,93.41a6.6,6.6,0,0,1-6.6,6.6h0a6.6,6.6,0,0,1-6.61-6.6V57.19"/><path class="cls-4" d="M1,57.1a49.51,49.51,0,1,1,99,0"/><path class="cls-4" d="M1,57.11A14.86,14.86,0,0,1,25.69,57"/><path class="cls-4" d="M25.77,57.1a14.86,14.86,0,0,1,24.77.09"/><path class="cls-4" d="M50.49,57.16A14.86,14.86,0,0,1,75.2,57"/><path class="cls-4" d="M75.28,57.1A14.86,14.86,0,0,1,100,57"/></g></g></svg>