<svg xmlns="http://www.w3.org/2000/svg" viewBox="0 0 75.34 101.01"><defs><style>.cls-1{fill:#dceaf8;}.cls-2{fill:#fff;opacity:0.5;}.cls-3{fill:#ace;}.cls-4{fill:#000064;opacity:0.15;}.cls-5{fill:none;stroke:#2e4369;stroke-linecap:round;stroke-linejoin:round;stroke-width:2px;}</style></defs><title>资源 56</title><g id="图层_2" data-name="图层 2"><g id="Layer_1" data-name="Layer 1"><path class="cls-1" d="M43.9,43.9a6.6,6.6,0,1,1-6.6-6.6A6.59,6.59,0,0,1,43.9,43.9Z"/><path class="cls-2" d="M37.3,37.3a6.57,6.57,0,0,0-1.47.18,6.54,6.54,0,0,0,6.42,8.07,7.22,7.22,0,0,0,1.48-.17,7.22,7.22,0,0,0,.17-1.48A6.6,6.6,0,0,0,37.3,37.3Z"/><path class="cls-3" d="M44.29,8.73C44.29,2.94,40.7,1,37.68,1h0c-3,0-6.6,1.94-6.6,7.73s3.3,22,6.6,22h0C41,30.69,44.29,14.53,44.29,8.73Z"/><path class="cls-3" d="M27.64,51.23h0C26,48.37,10.33,53.6,5.31,56.49s-4.91,7-3.4,9.58h0c1.51,2.61,5,4.75,10,1.85S29.28,54.1,27.64,51.23Z"/><path class="cls-3" d="M70,56.58c-5-2.89-20.66-8.12-22.32-5.26h0C46.06,54.18,58.42,65.12,63.43,68s8.49.76,10-1.85h0C74.93,63.56,75.05,59.48,70,56.58Z"/><path class="cls-4" d="M37.68,1h0L37.3,1V30.62a1.08,1.08,0,0,0,.38.08h0c3.31,0,6.61-16.17,6.61-22S40.7,1,37.68,1Z"/><path class="cls-4" d="M73.39,66.18C74.9,63.57,75,59.5,70,56.6s-20.67-8.12-22.33-5.27h0a1.3,1.3,0,0,0-.08.34L73.36,66.24l0-.06Z"/><path class="cls-4" d="M27.67,51.23h0C26,48.37,10.36,53.6,5.34,56.49s-4.9,7-3.39,9.58H2a5,5,0,0,0,.31.49l25.49-15A1,1,0,0,0,27.67,51.23Z"/><line class="cls-5" x1="17.5" y1="100.01" x2="57.11" y2="100.01"/><line class="cls-5" x1="37.3" y1="50.5" x2="37.3" y2="100.01"/><path class="cls-5" d="M43.9,43.9a6.6,6.6,0,1,1-6.6-6.6A6.59,6.59,0,0,1,43.9,43.9Z"/><path class="cls-5" d="M44.29,8.73C44.29,2.94,40.7,1,37.68,1h0c-3,0-6.6,1.94-6.6,7.73s3.3,22,6.6,22h0C41,30.69,44.29,14.53,44.29,8.73Z"/><path class="cls-5" d="M27.64,51.23h0C26,48.37,10.33,53.6,5.31,56.49s-4.91,7-3.4,9.58h0c1.51,2.61,5,4.75,10,1.85S29.28,54.1,27.64,51.23Z"/><path class="cls-5" d="M70,56.58c-5-2.89-20.66-8.12-22.32-5.26h0C46.06,54.18,58.42,65.12,63.43,68s8.49.76,10-1.85h0C74.93,63.56,75.05,59.48,70,56.58Z"/></g></g></svg>